<svg xmlns="http://www.w3.org/2000/svg" width="742" height="280" viewBox="0 0 742 280" fill="none"><path d="M275.52 124.76C276.77 118.87 277.39 114 277.39 110.11C277.39 101.38 274.55 94.62 268.89 89.82C264.11 85.84 258.06 83.84 250.77 83.84C242.74 83.84 236.35 85.32 231.55 88.28C229.05 89.85 227.8 91.46 227.8 93.13C227.8 94.04 228.3 95.52 229.33 97.57C230.28 99.59 231.26 100.59 232.29 100.59C232.97 100.59 233.77 100.34 234.68 99.84C239.46 97.31 244.17 96.04 248.82 96.04C254 96.04 258.01 97.31 260.9 99.84C262.31 101.14 263.38 102.75 264.15 104.69C264.92 106.64 265.29 108.56 265.29 110.51C265.29 112.44 265.24 114.06 265.11 115.35C260.49 111.44 254.81 109.48 248.14 109.48C241.45 109.48 235.97 110.98 231.72 114C226.54 117.71 223.97 123.08 223.97 130.12C223.97 136.55 226.33 141.74 231.04 145.68C233.13 147.43 235.52 148.75 238.21 149.64C240.9 150.53 243.6 150.98 246.31 150.98C249 150.98 251.47 150.68 253.72 150.07C260.06 148.32 264.71 144.73 267.68 139.29C268.11 141.47 268.43 143.48 268.64 145.34C268.76 146.02 268.84 146.61 268.87 147.07C268.91 147.55 269.08 148.09 269.39 148.68C269.69 149.27 270.59 149.55 272.07 149.55H277.6C279.56 149.55 280.56 148.55 280.56 146.53C280.43 141.21 278.75 133.95 275.52 124.76ZM258.98 136.11C257.77 137.06 256.32 137.84 254.66 138.45C252.98 139.06 250.84 139.36 248.23 139.36C245.64 139.36 243.29 138.54 241.2 136.9C240.22 136.11 239.45 135.12 238.9 133.92C238.35 132.72 238.06 131.35 238.06 129.82C238.06 128.29 238.4 126.93 239.06 125.8C239.74 124.66 240.84 123.5 242.4 122.34C243.95 121.18 246.13 120.61 248.9 120.61C252.47 120.61 255.57 121.38 258.2 122.89C261.13 124.51 262.7 126.76 262.93 129.62C262.92 131.88 261.6 134.05 258.98 136.11Z" fill="#00489E"></path><path d="M342.79 144.03C341.65 139.12 341.08 132.66 341.08 124.65V89.03C341.08 87.96 340.78 87.07 340.17 86.35C339.56 85.62 338.6 85.26 337.26 85.26H331.28C329.87 85.26 328.83 85.62 328.19 86.35C327.55 87.06 327.23 87.96 327.23 89.03V123.05C327.23 127.32 325.45 131.1 321.88 134.4C320.27 135.85 318.49 137.01 316.49 137.88C314.49 138.75 312.56 139.18 310.67 139.18C308.8 139.18 307.17 138.95 305.8 138.5C301.59 137.09 299.48 131.84 299.48 122.76V89.03C299.48 86.51 298.21 85.26 295.71 85.26H289.45C288.22 85.26 287.29 85.62 286.61 86.35C285.95 87.06 285.63 87.96 285.63 89.03V123.39C285.63 132.47 287.4 139.35 290.93 144C294.46 148.66 299.94 150.98 307.4 150.98C313.09 150.98 317.86 149.84 321.68 147.54C325.5 145.24 328.19 142.1 329.8 138.1C330.71 141.83 331.57 144.74 332.35 146.83C333.08 148.65 334.58 149.56 336.87 149.56H339.42C341.78 149.56 342.95 148.28 342.95 145.69C342.95 144.99 342.9 144.44 342.79 144.03Z" fill="#00489E"></path><path d="M391.66 139.64L390.36 136.68C389.82 135.41 389.11 134.79 388.22 134.79C387.33 134.79 386.51 135.04 385.74 135.54C381.83 137.97 378.65 139.18 376.23 139.18C372.39 139.18 370.47 137.25 370.47 133.36V97.03H386.55C388.94 97.03 390.14 95.96 390.14 93.84V88.31C390.14 86.22 388.94 85.17 386.55 85.17H370.47V70.28C370.47 69.17 370.18 68.26 369.61 67.57C369.04 66.87 368.32 66.52 367.45 66.52H360.78C359.14 66.52 357.89 67.77 357.48 70.29V85.21H351.34C349.72 85.21 348.41 86.51 348.41 88.14V93.32C348.41 95.48 349.61 96.57 352 96.57H356.8V133.96C356.8 139.55 358.32 143.83 361.35 146.79C362.76 148.2 364.46 149.25 366.45 149.95C368.44 150.65 371.16 151 374.57 151C378 151 381.82 150.05 386.03 148.16C387.89 147.32 389.42 146.38 390.62 145.32C391.82 144.28 392.42 143.36 392.42 142.57C392.41 141.75 392.16 140.78 391.66 139.64Z" fill="#00489E"></path><path d="M448.8 92.84C447.19 90.48 445.05 88.63 442.36 87.27C439.67 85.93 436.76 85.25 433.67 85.25C430.56 85.25 428.01 85.5 426 85.98C419.66 87.55 414.85 91.1 411.58 96.65V70.07C411.58 69.05 411.29 68.2 410.72 67.5C410.15 66.82 409.44 66.48 408.56 66.48H400.76C399.92 66.48 399.21 66.82 398.62 67.5C398.03 68.2 397.73 69.05 397.73 70.07V147.19C397.73 148.26 398.05 149.15 398.68 149.88C399.3 150.59 400.16 150.95 401.27 150.95H407.48C408.93 150.95 409.98 150.59 410.62 149.88C411.26 149.15 411.58 148.26 411.58 147.19V115.51C411.58 110.57 413.47 106.19 417.24 102.39C420.77 98.89 424.52 97.14 428.52 97.14C435.66 97.14 439.23 102.01 439.23 111.74V147.18C439.23 148.25 439.57 149.14 440.27 149.87C440.95 150.58 442.02 150.94 443.46 150.94H449.05C450.37 150.94 451.39 150.6 452.07 149.92C452.75 149.22 453.09 148.31 453.09 147.17V111.78C453.07 103.46 451.64 97.13 448.8 92.84Z" fill="#00489E"></path><path d="M510.66 124.76C511.91 118.87 512.53 114 512.53 110.11C512.53 101.38 509.71 94.62 504.05 89.82C499.25 85.84 493.22 83.84 485.92 83.84C477.91 83.84 471.5 85.32 466.72 88.28C464.2 89.85 462.95 91.46 462.95 93.13C462.95 94.04 463.47 95.52 464.48 97.57C465.43 99.59 466.43 100.59 467.44 100.59C468.14 100.59 468.92 100.34 469.83 99.84C474.63 97.31 479.34 96.04 483.97 96.04C489.15 96.04 493.18 97.31 496.05 99.84C497.46 101.14 498.55 102.75 499.3 104.69C500.07 106.64 500.44 108.56 500.44 110.51C500.44 112.44 500.39 114.06 500.28 115.35C495.64 111.44 489.98 109.48 483.29 109.48C476.6 109.48 471.14 110.98 466.87 114C461.71 117.71 459.12 123.08 459.12 130.12C459.12 136.55 461.48 141.74 466.19 145.68C468.28 147.43 470.67 148.75 473.36 149.64C476.05 150.53 478.77 150.98 481.46 150.98C484.15 150.98 486.62 150.68 488.87 150.07C495.22 148.32 499.86 144.73 502.83 139.29C503.26 141.47 503.58 143.48 503.81 145.34C503.92 146.02 503.99 146.61 504.04 147.07C504.08 147.55 504.24 148.09 504.54 148.68C504.84 149.27 505.74 149.55 507.22 149.55H512.75C514.73 149.55 515.71 148.55 515.71 146.53C515.59 141.21 513.89 133.95 510.66 124.76ZM494.14 136.11C492.93 137.06 491.48 137.84 489.8 138.45C488.12 139.06 486 139.36 483.39 139.36C480.78 139.36 478.43 138.54 476.34 136.9C475.36 136.11 474.59 135.12 474.04 133.92C473.49 132.72 473.22 131.35 473.22 129.82C473.22 128.29 473.54 126.93 474.22 125.8C474.88 124.66 475.99 123.5 477.54 122.34C479.11 121.18 481.27 120.61 484.05 120.61C487.62 120.61 490.71 121.38 493.33 122.89C496.26 124.51 497.83 126.76 498.06 129.62C498.06 131.88 496.76 134.05 494.14 136.11Z" fill="#00489E"></path><path d="M561.3 87.42C559.6 85.97 556.55 85.26 552.18 85.26C548.27 85.26 544.97 86.53 542.27 89.08C540.93 90.37 539.81 91.95 538.9 93.85C537.99 95.72 537.44 97.31 537.26 98.6C537.06 99.9 536.94 100.55 536.89 100.55C536.84 100.55 536.8 100.51 536.8 100.43C536.23 95.77 535.32 92.1 534.07 89.44C533.2 87.62 531.71 86.71 529.63 86.71H526.54C524.15 86.71 522.95 88.07 522.95 90.81C522.95 91.26 523.16 92.56 523.61 94.7C524.04 96.86 524.27 101.27 524.27 107.96V147.22C524.27 148.29 524.57 149.18 525.2 149.91C525.82 150.62 526.75 150.98 527.97 150.98H534.59C535.71 150.98 536.59 150.62 537.21 149.91C537.82 149.18 538.12 148.29 538.12 147.22V116.97C538.12 112.74 539.23 108.78 541.48 105.05C542.59 103.27 543.89 101.77 545.41 100.57C546.94 99.37 548.37 98.79 549.75 98.79C551.12 98.79 552.98 99.09 555.34 99.7C556.55 100.04 557.59 100.22 558.43 100.22C560.16 100.22 561.16 99.24 561.39 97.31L562.3 90.12C562.42 88.95 562.1 88.08 561.3 87.42Z" fill="#00489E"></path><path d="M621.89 85.9901H615.34C614.43 85.9901 613.59 86.2601 612.82 86.7901C612.41 87.0601 612.03 87.4301 611.71 87.9301C611.39 88.4301 611.07 89.7301 610.75 91.8601C610.43 94.0001 609.93 97.0501 609.23 101.05C606.73 116.24 603.43 127.66 599.32 135.3C598.48 136.89 597.57 137.69 596.57 137.69C595.32 137.69 594.48 136.73 594.07 134.78C590.61 119.77 586.41 104.94 581.47 90.2701C580.9 88.5901 580.2 87.4701 579.38 86.8801C578.58 86.2901 577.49 85.9901 576.17 85.9901H570.98C568.02 85.9901 566.54 87.1301 566.54 89.4201C566.54 90.0601 566.7 90.8501 567 91.7601L575.26 115.59C577.95 123.57 580.56 131.74 583.06 140.09C584.29 144.16 585.65 146.93 587.16 148.41C588.07 149.28 589.21 149.94 590.59 150.36C591.96 150.77 593.57 150.98 595.43 150.98C597.3 150.98 599.14 150.71 600.96 150.18C602.78 149.66 604.58 148.34 606.39 146.25C611.55 140.02 616.22 129.6 620.4 114.96C623.36 104.7 625.08 96.3501 625.54 89.8801C625.55 87.2901 624.32 85.9901 621.89 85.9901Z" fill="#00489E"></path><path d="M680 124.76C681.25 118.87 681.87 114 681.87 110.11C681.87 101.38 679.05 94.62 673.39 89.82C668.59 85.84 662.56 83.84 655.26 83.84C647.25 83.84 640.84 85.32 636.06 88.28C633.54 89.85 632.29 91.46 632.29 93.13C632.29 94.04 632.81 95.52 633.82 97.57C634.77 99.59 635.77 100.59 636.78 100.59C637.48 100.59 638.26 100.34 639.17 99.84C643.97 97.31 648.68 96.04 653.31 96.04C658.49 96.04 662.52 97.31 665.41 99.84C666.8 101.14 667.89 102.75 668.66 104.69C669.41 106.64 669.78 108.56 669.78 110.51C669.78 112.44 669.73 114.06 669.62 115.35C664.98 111.44 659.32 109.48 652.63 109.48C645.94 109.48 640.48 110.98 636.21 114C631.05 117.71 628.46 123.08 628.46 130.12C628.46 136.55 630.82 141.74 635.53 145.68C637.62 147.43 640.01 148.75 642.7 149.64C645.41 150.53 648.11 150.98 650.8 150.98C653.49 150.98 655.96 150.68 658.21 150.07C664.56 148.32 669.22 144.73 672.18 139.29C672.59 141.47 672.91 143.48 673.14 145.34C673.25 146.02 673.34 146.61 673.37 147.07C673.41 147.55 673.57 148.09 673.87 148.68C674.17 149.27 675.07 149.55 676.55 149.55H682.08C684.06 149.55 685.04 148.55 685.04 146.53C684.93 141.21 683.23 133.95 680 124.76ZM663.47 136.11C662.26 137.06 660.81 137.84 659.13 138.45C657.47 139.06 655.33 139.36 652.72 139.36C650.11 139.36 647.78 138.54 645.69 136.9C644.69 136.11 643.92 135.12 643.37 133.92C642.82 132.72 642.55 131.35 642.55 129.82C642.55 128.29 642.89 126.93 643.55 125.8C644.21 124.66 645.32 123.5 646.89 122.34C648.44 121.18 650.6 120.61 653.39 120.61C656.96 120.61 660.05 121.38 662.67 122.89C665.6 124.51 667.19 126.76 667.4 129.62C667.4 131.88 666.1 134.05 663.47 136.11Z" fill="#00489E"></path><path fill-rule="evenodd" clip-rule="evenodd" d="M107.262 69.8118C104.098 70.7338 101.031 71.8834 98.0805 73.2416C100.059 73.4213 102.026 73.7623 103.953 74.2577C113.388 76.5509 121.916 82.3341 127.665 90.32C123.483 81.1876 116.073 74.143 107.262 69.8118ZM80.9238 84.6329C79.3313 86.0878 77.8094 87.6187 76.3639 89.2199C77.4042 92.491 79.0815 95.2179 81.3693 97.3806C88.9107 104.592 100.923 103.898 108.867 103.435C110.035 103.355 111.112 103.305 112.058 103.275C118.563 103.104 124.614 104.632 129.528 107.73C131.38 108.907 133.625 111.059 136.243 114.217L139.506 118.17L141.016 113.272C141.358 112.156 142.214 110.848 143.191 109.812C143.795 113.624 145.315 116.913 147.339 120.383C150.561 126.951 146.312 129.546 145.466 129.978L141.993 131.668L144.711 134.414C147.389 137.099 147.963 140.71 147.812 143.818C142.617 137.592 133.978 133.448 125.742 133.88C113.559 134.484 104.265 144.19 100.006 152.296C95.2439 161.379 95.0727 172.885 99.2713 182.993C100.087 184.974 101.084 186.915 102.242 188.756C104.75 192.787 107.879 196.247 111.355 199.241C115.058 200.069 118.878 200.589 122.785 200.774C116.667 196.959 110.872 192.13 106.934 185.839C100.983 176.335 100.167 163.883 104.9 154.871C108.766 147.509 116.791 139.865 126.014 139.392C134.491 138.97 143.845 144.874 146.443 152.296L148.869 159.206L151.618 152.417C151.82 151.924 156.068 141.223 150.641 132.975C151.699 131.939 152.816 130.491 153.481 128.54C154.588 125.311 154.186 121.741 152.293 117.868L152.202 117.697C149.725 113.473 148.336 110.114 148.447 105.437L148.517 102.349L145.436 102.611C142.315 102.892 139.626 105.155 137.824 107.64C136.334 106.071 134.431 104.3 132.478 103.063C126.618 99.3821 119.499 97.5516 111.877 97.7628C110.901 97.793 109.773 97.8433 108.534 97.9137C101.547 98.3261 90.9949 98.9396 85.1752 93.3977C82.9614 91.3013 81.542 88.3569 80.9238 84.6329ZM173.685 180.851C176.977 177.502 179.918 173.807 182.45 169.826C179.047 171.103 175.483 172.066 171.846 172.633C151.94 175.942 130.756 167.534 118.15 151.673C129.693 171.014 151.72 181.652 173.685 180.851ZM192.4 126.205C191.923 122.095 191.073 118.098 189.884 114.25C186.073 127.992 173.776 139.438 159.311 141.806C171.952 141.999 184.306 135.909 192.4 126.205ZM157.261 74.8945C152.872 72.5685 148.193 70.7169 143.293 69.4083C152.565 76.9154 159.101 87.8439 161.113 99.7543C162.17 105.678 162.17 111.864 161.073 117.939C166.12 103.641 164.22 87.9849 157.261 74.8945ZM78.1934 180.728C78.1952 179.802 78.2242 178.873 78.2782 177.944C79.2549 158.21 91.74 139.694 109.622 130.934C90.5242 137.218 76.4556 153.426 71.1665 172.249C73.2755 175.267 75.6273 178.102 78.1934 180.728ZM59.2708 138.053C59.5518 137.658 59.8393 137.267 60.1345 136.878C71.6933 121.399 91.9615 113.171 111.233 115.786C93.2373 110.7 74.0133 115.375 59.5699 126.465C59.2925 128.939 59.15 131.453 59.15 134C59.15 135.361 59.1906 136.712 59.2708 138.053ZM126 64.85C87.8095 64.85 56.85 95.8095 56.85 134C56.85 172.191 87.8095 203.15 126 203.15C164.19 203.15 195.15 172.191 195.15 134C195.15 95.8095 164.19 64.85 126 64.85ZM130.897 120.061C129.276 120.725 128.521 122.575 129.185 124.185C129.86 125.804 131.702 126.568 133.323 125.895C134.934 125.231 135.71 123.39 135.035 121.771C134.371 120.162 132.508 119.397 130.897 120.061Z" fill="url(#paint0_linear_863_35311)"></path><path d="M224 166.3H685.07" stroke="#FFE515" stroke-miterlimit="10"></path><path d="M238.31 199.43H229.07L227 205.2H224L232.42 183.15H234.96L243.39 205.2H240.41L238.31 199.43ZM229.95 197.06H237.44L233.68 186.75L229.95 197.06Z" fill="#157FFF"></path><path d="M245.4 196.87C245.4 194.36 246 192.34 247.19 190.81C248.38 189.28 249.94 188.52 251.87 188.52C253.79 188.52 255.31 189.18 256.43 190.49V181.95H259.23V205.21H256.66L256.52 203.45C255.4 204.82 253.84 205.51 251.84 205.51C249.94 205.51 248.4 204.73 247.2 203.18C246 201.63 245.41 199.6 245.41 197.09V196.87H245.4ZM248.2 197.19C248.2 199.05 248.58 200.5 249.35 201.55C250.12 202.6 251.18 203.12 252.53 203.12C254.31 203.12 255.6 202.32 256.42 200.73V193.2C255.58 191.66 254.29 190.88 252.56 190.88C251.19 190.88 250.12 191.41 249.35 192.47C248.58 193.54 248.2 195.11 248.2 197.19Z" fill="#157FFF"></path><path d="M273.84 205.2C273.68 204.88 273.55 204.3 273.45 203.47C272.15 204.82 270.59 205.5 268.79 205.5C267.17 205.5 265.85 205.04 264.82 204.13C263.78 203.22 263.27 202.06 263.27 200.66C263.27 198.95 263.92 197.63 265.22 196.69C266.52 195.75 268.34 195.27 270.69 195.27H273.42V193.98C273.42 193 273.13 192.22 272.54 191.64C271.95 191.06 271.09 190.77 269.95 190.77C268.95 190.77 268.11 191.02 267.44 191.53C266.76 192.04 266.43 192.65 266.43 193.36H263.61C263.61 192.54 263.9 191.75 264.48 190.99C265.06 190.23 265.85 189.63 266.84 189.18C267.83 188.74 268.93 188.51 270.12 188.51C272.01 188.51 273.49 188.98 274.56 189.93C275.63 190.87 276.18 192.17 276.23 193.83V201.37C276.23 202.87 276.42 204.07 276.81 204.96V205.2H273.84ZM269.19 203.07C270.07 203.07 270.9 202.84 271.69 202.39C272.48 201.94 273.05 201.35 273.4 200.62V197.26H271.2C267.77 197.26 266.05 198.26 266.05 200.27C266.05 201.15 266.34 201.84 266.93 202.33C267.52 202.82 268.27 203.07 269.19 203.07Z" fill="#157FFF"></path><path d="M294.58 197.19C294.58 199.68 294.01 201.69 292.87 203.22C291.73 204.74 290.18 205.51 288.24 205.51C286.25 205.51 284.69 204.88 283.55 203.62V211.51H280.75V188.83H283.31L283.45 190.65C284.59 189.24 286.18 188.53 288.2 188.53C290.17 188.53 291.73 189.27 292.87 190.76C294.02 192.24 294.59 194.31 294.59 196.95V197.19H294.58ZM291.78 196.87C291.78 195.02 291.39 193.56 290.6 192.49C289.81 191.42 288.73 190.89 287.36 190.89C285.66 190.89 284.39 191.64 283.54 193.15V200.98C284.38 202.47 285.66 203.22 287.39 203.22C288.73 203.22 289.8 202.69 290.59 201.62C291.39 200.56 291.78 198.97 291.78 196.87Z" fill="#157FFF"></path><path d="M302.1 184.85V188.82H305.16V190.99H302.1V201.16C302.1 201.82 302.24 202.31 302.51 202.64C302.78 202.97 303.25 203.13 303.9 203.13C304.22 203.13 304.67 203.07 305.23 202.95V205.21C304.49 205.41 303.78 205.51 303.08 205.51C301.83 205.51 300.88 205.13 300.25 204.37C299.61 203.61 299.3 202.54 299.3 201.14V190.98H296.32V188.81H299.3V184.84H302.1V184.85Z" fill="#157FFF"></path><path d="M308.59 184.47C308.59 184.02 308.73 183.63 309.01 183.32C309.29 183.01 309.7 182.85 310.24 182.85C310.79 182.85 311.2 183.01 311.48 183.32C311.76 183.63 311.9 184.02 311.9 184.47C311.9 184.92 311.76 185.3 311.48 185.61C311.2 185.91 310.78 186.06 310.24 186.06C309.69 186.06 309.28 185.91 309.01 185.61C308.73 185.31 308.59 184.93 308.59 184.47ZM311.62 205.2H308.82V188.82H311.62V205.2Z" fill="#157FFF"></path><path d="M321.67 201.4L325.73 188.82H328.59L322.72 205.2H320.59L314.65 188.82H317.51L321.67 201.4Z" fill="#157FFF"></path><path d="M338.04 205.5C335.82 205.5 334.01 204.77 332.62 203.31C331.23 201.85 330.53 199.9 330.53 197.46V196.95C330.53 195.33 330.84 193.87 331.46 192.6C332.08 191.32 332.95 190.32 334.06 189.6C335.17 188.88 336.38 188.52 337.69 188.52C339.82 188.52 341.48 189.22 342.66 190.62C343.84 192.02 344.43 194.03 344.43 196.65V197.82H333.33C333.37 199.44 333.84 200.74 334.75 201.73C335.65 202.72 336.8 203.22 338.19 203.22C339.18 203.22 340.02 203.02 340.7 202.61C341.39 202.21 341.99 201.67 342.5 201.01L344.21 202.34C342.84 204.45 340.78 205.5 338.04 205.5ZM337.69 190.82C336.56 190.82 335.61 191.23 334.84 192.05C334.07 192.87 333.6 194.03 333.42 195.51H341.63V195.3C341.55 193.88 341.17 192.77 340.48 191.99C339.79 191.21 338.86 190.82 337.69 190.82Z" fill="#157FFF"></path><path d="M368.27 199.43H359.03L356.96 205.2H353.96L362.38 183.15H364.92L373.35 205.2H370.37L368.27 199.43ZM359.91 197.06H367.4L363.64 186.75L359.91 197.06Z" fill="#157FFF"></path><path d="M385.98 203.58C384.89 204.86 383.29 205.5 381.18 205.5C379.43 205.5 378.1 204.99 377.19 203.98C376.28 202.97 375.81 201.46 375.8 199.48V188.82H378.6V199.4C378.6 201.88 379.61 203.12 381.63 203.12C383.77 203.12 385.19 202.32 385.9 200.73V188.81H388.7V205.19H386.04L385.98 203.58Z" fill="#157FFF"></path><path d="M396.92 184.85V188.82H399.98V190.99H396.92V201.16C396.92 201.82 397.06 202.31 397.33 202.64C397.6 202.97 398.07 203.13 398.72 203.13C399.04 203.13 399.49 203.07 400.05 202.95V205.21C399.31 205.41 398.6 205.51 397.9 205.51C396.65 205.51 395.7 205.13 395.07 204.37C394.43 203.61 394.12 202.54 394.12 201.14V190.98H391.14V188.81H394.12V184.84H396.92V184.85Z" fill="#157FFF"></path><path d="M406.21 190.8C407.45 189.28 409.07 188.51 411.06 188.51C414.52 188.51 416.27 190.46 416.3 194.37V205.2H413.5V194.36C413.49 193.18 413.22 192.31 412.69 191.74C412.16 191.18 411.33 190.89 410.21 190.89C409.3 190.89 408.5 191.13 407.82 191.62C407.13 192.1 406.6 192.74 406.22 193.53V205.2H403.42V181.94H406.22V190.8H406.21Z" fill="#157FFF"></path><path d="M419.9 196.86C419.9 195.26 420.22 193.81 420.85 192.53C421.48 191.25 422.36 190.26 423.48 189.56C424.61 188.86 425.89 188.52 427.33 188.52C429.56 188.52 431.37 189.29 432.74 190.84C434.12 192.38 434.81 194.44 434.81 197V197.2C434.81 198.8 434.5 200.23 433.89 201.49C433.28 202.76 432.41 203.74 431.27 204.45C430.13 205.16 428.83 205.51 427.36 205.51C425.14 205.51 423.34 204.74 421.96 203.19C420.58 201.65 419.89 199.6 419.89 197.06V196.86H419.9ZM422.71 197.19C422.71 199.01 423.13 200.47 423.97 201.57C424.81 202.67 425.94 203.22 427.35 203.22C428.77 203.22 429.9 202.66 430.74 201.55C431.58 200.44 432 198.87 432 196.86C432 195.06 431.57 193.61 430.72 192.49C429.87 191.38 428.73 190.82 427.32 190.82C425.94 190.82 424.82 191.37 423.97 192.47C423.14 193.57 422.71 195.14 422.71 197.19Z" fill="#157FFF"></path><path d="M446.4 191.33C445.98 191.26 445.52 191.22 445.02 191.22C443.18 191.22 441.94 192 441.28 193.57V205.2H438.48V188.82H441.21L441.26 190.71C442.18 189.25 443.48 188.51 445.17 188.51C445.72 188.51 446.13 188.58 446.41 188.72V191.33H446.4Z" fill="#157FFF"></path><path d="M449.14 184.47C449.14 184.02 449.28 183.63 449.56 183.32C449.84 183.01 450.25 182.85 450.79 182.85C451.34 182.85 451.75 183.01 452.03 183.32C452.31 183.63 452.45 184.02 452.45 184.47C452.45 184.92 452.31 185.3 452.03 185.61C451.75 185.91 451.33 186.06 450.79 186.06C450.24 186.06 449.83 185.91 449.56 185.61C449.28 185.31 449.14 184.93 449.14 184.47ZM452.17 205.2H449.37V188.82H452.17V205.2Z" fill="#157FFF"></path><path d="M459.44 202.91H469.02V205.2H456.01V203.14L465.05 191.13H456.15V188.81H468.57V190.79L459.44 202.91Z" fill="#157FFF"></path><path d="M482.44 205.2C482.28 204.88 482.15 204.3 482.05 203.47C480.75 204.82 479.19 205.5 477.39 205.5C475.77 205.5 474.45 205.04 473.42 204.13C472.38 203.22 471.87 202.06 471.87 200.66C471.87 198.95 472.52 197.63 473.82 196.69C475.12 195.75 476.94 195.27 479.29 195.27H482V193.98C482 193 481.71 192.22 481.12 191.64C480.53 191.06 479.67 190.77 478.53 190.77C477.53 190.77 476.69 191.02 476.02 191.53C475.34 192.04 475.01 192.65 475.01 193.36H472.19C472.19 192.54 472.48 191.75 473.06 190.99C473.64 190.23 474.43 189.63 475.42 189.18C476.41 188.74 477.51 188.51 478.7 188.51C480.59 188.51 482.07 188.98 483.14 189.93C484.21 190.87 484.76 192.17 484.81 193.83V201.37C484.81 202.87 485 204.07 485.39 204.96V205.2H482.44ZM477.8 203.07C478.68 203.07 479.51 202.84 480.3 202.39C481.09 201.94 481.66 201.35 482.01 200.62V197.26H479.81C476.38 197.26 474.66 198.26 474.66 200.27C474.66 201.15 474.95 201.84 475.54 202.33C476.12 202.82 476.88 203.07 477.8 203.07Z" fill="#157FFF"></path><path d="M493.15 184.85V188.82H496.21V190.99H493.15V201.16C493.15 201.82 493.29 202.31 493.56 202.64C493.83 202.97 494.3 203.13 494.95 203.13C495.27 203.13 495.72 203.07 496.28 202.95V205.21C495.54 205.41 494.83 205.51 494.13 205.51C492.88 205.51 491.93 205.13 491.3 204.37C490.66 203.61 490.35 202.54 490.35 201.14V190.98H487.37V188.81H490.35V184.84H493.15V184.85Z" fill="#157FFF"></path><path d="M499.65 184.47C499.65 184.02 499.79 183.63 500.07 183.32C500.35 183.01 500.76 182.85 501.3 182.85C501.84 182.85 502.26 183.01 502.54 183.32C502.82 183.63 502.96 184.02 502.96 184.47C502.96 184.92 502.82 185.3 502.54 185.61C502.26 185.91 501.84 186.06 501.3 186.06C500.76 186.06 500.34 185.91 500.07 185.61C499.79 185.31 499.65 184.93 499.65 184.47ZM502.68 205.2H499.88V188.82H502.68V205.2Z" fill="#157FFF"></path><path d="M506.57 196.86C506.57 195.26 506.89 193.81 507.52 192.53C508.15 191.25 509.03 190.26 510.15 189.56C511.28 188.86 512.56 188.52 514 188.52C516.23 188.52 518.04 189.29 519.41 190.84C520.79 192.38 521.48 194.44 521.48 197V197.2C521.48 198.8 521.17 200.23 520.56 201.49C519.95 202.76 519.08 203.74 517.94 204.45C516.8 205.16 515.5 205.51 514.03 205.51C511.81 205.51 510.01 204.74 508.63 203.19C507.25 201.65 506.56 199.6 506.56 197.06V196.86H506.57ZM509.39 197.19C509.39 199.01 509.81 200.47 510.65 201.57C511.49 202.67 512.62 203.22 514.03 203.22C515.45 203.22 516.58 202.66 517.42 201.55C518.26 200.44 518.68 198.87 518.68 196.86C518.68 195.06 518.25 193.61 517.4 192.49C516.55 191.38 515.41 190.82 514 190.82C512.62 190.82 511.5 191.37 510.65 192.47C509.82 193.57 509.39 195.14 509.39 197.19Z" fill="#157FFF"></path><path d="M527.81 188.82L527.9 190.88C529.15 189.31 530.79 188.52 532.81 188.52C536.27 188.52 538.02 190.47 538.05 194.38V205.21H535.25V194.37C535.24 193.19 534.97 192.32 534.44 191.75C533.91 191.19 533.08 190.9 531.96 190.9C531.05 190.9 530.25 191.14 529.57 191.63C528.88 192.11 528.35 192.75 527.97 193.54V205.21H525.17V188.83H527.81V188.82Z" fill="#157FFF"></path><path d="M549.51 196.86C549.51 195.26 549.83 193.81 550.46 192.53C551.09 191.25 551.97 190.26 553.09 189.56C554.22 188.86 555.5 188.52 556.94 188.52C559.17 188.52 560.98 189.29 562.35 190.84C563.73 192.38 564.42 194.44 564.42 197V197.2C564.42 198.8 564.11 200.23 563.5 201.49C562.89 202.76 562.02 203.74 560.88 204.45C559.74 205.16 558.44 205.51 556.97 205.51C554.75 205.51 552.95 204.74 551.57 203.19C550.19 201.65 549.5 199.6 549.5 197.06V196.86H549.51ZM552.33 197.19C552.33 199.01 552.75 200.47 553.59 201.57C554.43 202.67 555.56 203.22 556.97 203.22C558.39 203.22 559.52 202.66 560.36 201.55C561.2 200.44 561.62 198.87 561.62 196.86C561.62 195.06 561.19 193.61 560.34 192.49C559.49 191.38 558.35 190.82 556.94 190.82C555.56 190.82 554.44 191.37 553.59 192.47C552.75 193.57 552.33 195.14 552.33 197.19Z" fill="#157FFF"></path><path d="M569.47 205.2V190.98H566.88V188.81H569.47V187.13C569.47 185.37 569.94 184.02 570.88 183.06C571.82 182.1 573.15 181.62 574.86 181.62C575.51 181.62 576.15 181.71 576.78 181.88L576.63 184.14C576.15 184.05 575.65 184 575.12 184C574.21 184 573.51 184.27 573.02 184.8C572.53 185.33 572.28 186.09 572.28 187.09V188.82H575.78V190.99H572.28V205.21H569.47V205.2Z" fill="#157FFF"></path><path d="M599.46 199.43H590.22L588.15 205.2H585.15L593.57 183.15H596.11L604.54 205.2H601.56L599.46 199.43ZM591.1 197.06H598.59L594.83 186.75L591.1 197.06Z" fill="#157FFF"></path><path d="M613.8 203.22C614.8 203.22 615.67 202.92 616.42 202.31C617.17 201.7 617.58 200.95 617.66 200.04H620.31C620.26 200.98 619.94 201.87 619.34 202.72C618.74 203.57 617.95 204.24 616.96 204.75C615.97 205.25 614.91 205.51 613.8 205.51C611.57 205.51 609.8 204.77 608.48 203.28C607.16 201.79 606.5 199.75 606.5 197.17V196.7C606.5 195.11 606.79 193.69 607.38 192.45C607.96 191.21 608.81 190.25 609.9 189.56C611 188.87 612.29 188.53 613.78 188.53C615.62 188.53 617.14 189.08 618.36 190.18C619.58 191.28 620.22 192.71 620.31 194.46H617.66C617.58 193.4 617.18 192.53 616.46 191.85C615.74 191.17 614.85 190.83 613.79 190.83C612.37 190.83 611.26 191.34 610.48 192.37C609.7 193.39 609.31 194.88 609.31 196.81V197.34C609.31 199.23 609.7 200.68 610.48 201.7C611.25 202.71 612.36 203.22 613.8 203.22Z" fill="#157FFF"></path><path d="M630.19 203.22C631.19 203.22 632.06 202.92 632.81 202.31C633.56 201.7 633.97 200.95 634.05 200.04H636.7C636.65 200.98 636.33 201.87 635.73 202.72C635.13 203.57 634.34 204.24 633.35 204.75C632.36 205.25 631.3 205.51 630.19 205.51C627.96 205.51 626.19 204.77 624.87 203.28C623.55 201.79 622.89 199.75 622.89 197.17V196.7C622.89 195.11 623.18 193.69 623.77 192.45C624.36 191.21 625.2 190.25 626.29 189.56C627.39 188.87 628.68 188.53 630.17 188.53C632.01 188.53 633.53 189.08 634.75 190.18C635.97 191.28 636.61 192.71 636.7 194.46H634.05C633.97 193.4 633.57 192.53 632.85 191.85C632.13 191.17 631.24 190.83 630.18 190.83C628.76 190.83 627.65 191.34 626.87 192.37C626.09 193.39 625.7 194.88 625.7 196.81V197.34C625.7 199.23 626.09 200.68 626.87 201.7C627.63 202.71 628.74 203.22 630.19 203.22Z" fill="#157FFF"></path><path d="M646.8 205.5C644.58 205.5 642.77 204.77 641.38 203.31C639.99 201.85 639.29 199.9 639.29 197.46V196.95C639.29 195.33 639.6 193.87 640.22 192.6C640.84 191.32 641.71 190.32 642.82 189.6C643.93 188.88 645.14 188.52 646.45 188.52C648.58 188.52 650.24 189.22 651.42 190.62C652.6 192.02 653.19 194.03 653.19 196.65V197.82H642.09C642.13 199.44 642.6 200.74 643.51 201.73C644.41 202.72 645.56 203.22 646.95 203.22C647.94 203.22 648.78 203.02 649.46 202.61C650.15 202.21 650.75 201.67 651.26 201.01L652.97 202.34C651.61 204.45 649.55 205.5 646.8 205.5ZM646.45 190.82C645.32 190.82 644.37 191.23 643.6 192.05C642.83 192.87 642.36 194.03 642.18 195.51H650.39V195.3C650.31 193.88 649.93 192.77 649.24 191.99C648.55 191.21 647.62 190.82 646.45 190.82Z" fill="#157FFF"></path><path d="M666.12 200.86C666.12 200.1 665.83 199.52 665.26 199.1C664.69 198.68 663.69 198.32 662.28 198.02C660.87 197.72 659.74 197.35 658.9 196.93C658.06 196.51 657.45 196 657.05 195.42C656.65 194.84 656.45 194.14 656.45 193.33C656.45 191.99 657.02 190.85 658.15 189.92C659.29 188.99 660.74 188.53 662.5 188.53C664.36 188.53 665.86 189.01 667.02 189.97C668.18 190.93 668.75 192.16 668.75 193.65H665.93C665.93 192.88 665.6 192.22 664.95 191.67C664.3 191.12 663.48 190.84 662.49 190.84C661.47 190.84 660.67 191.06 660.1 191.51C659.52 191.95 659.24 192.53 659.24 193.25C659.24 193.93 659.51 194.44 660.04 194.78C660.58 195.12 661.54 195.45 662.94 195.76C664.34 196.07 665.47 196.45 666.34 196.88C667.21 197.31 667.85 197.84 668.27 198.45C668.69 199.06 668.9 199.81 668.9 200.68C668.9 202.14 668.32 203.32 667.14 204.2C665.97 205.08 664.45 205.52 662.58 205.52C661.27 205.52 660.11 205.29 659.1 204.82C658.09 204.36 657.3 203.71 656.73 202.87C656.16 202.04 655.87 201.14 655.87 200.17H658.67C658.72 201.11 659.1 201.85 659.8 202.4C660.5 202.95 661.43 203.23 662.58 203.23C663.64 203.23 664.49 203.02 665.13 202.59C665.8 202.15 666.12 201.57 666.12 200.86Z" fill="#157FFF"></path><path d="M682.27 200.86C682.27 200.1 681.98 199.52 681.41 199.1C680.84 198.68 679.84 198.32 678.43 198.02C677.01 197.72 675.89 197.35 675.05 196.93C674.21 196.51 673.6 196 673.2 195.42C672.8 194.84 672.6 194.14 672.6 193.33C672.6 191.99 673.17 190.85 674.3 189.92C675.44 188.99 676.89 188.53 678.65 188.53C680.51 188.53 682.01 189.01 683.17 189.97C684.33 190.93 684.9 192.16 684.9 193.65H682.08C682.08 192.88 681.75 192.22 681.1 191.67C680.45 191.12 679.63 190.84 678.64 190.84C677.62 190.84 676.82 191.06 676.25 191.51C675.67 191.95 675.39 192.53 675.39 193.25C675.39 193.93 675.66 194.44 676.19 194.78C676.73 195.12 677.69 195.45 679.09 195.76C680.49 196.07 681.62 196.45 682.49 196.88C683.36 197.31 684 197.84 684.42 198.45C684.84 199.06 685.05 199.81 685.05 200.68C685.05 202.14 684.47 203.32 683.29 204.2C682.12 205.08 680.6 205.52 678.73 205.52C677.42 205.52 676.26 205.29 675.25 204.82C674.24 204.36 673.45 203.71 672.88 202.87C672.31 202.03 672.02 201.14 672.02 200.17H674.82C674.87 201.11 675.25 201.85 675.95 202.4C676.65 202.95 677.58 203.23 678.73 203.23C679.79 203.23 680.64 203.02 681.28 202.59C681.95 202.15 682.27 201.57 682.27 200.86Z" fill="#157FFF"></path><defs><linearGradient id="paint0_linear_863_35311" x1="178.867" y1="171.076" x2="73.0211" y2="96.882" gradientUnits="userSpaceOnUse"><stop offset="5.32779e-09" stop-color="#FFE515"></stop><stop offset="0.0938" stop-color="#FFBB15"></stop><stop offset="0.2306" stop-color="#FF8515"></stop><stop offset="0.3489" stop-color="#FF5D15"></stop><stop offset="0.4426" stop-color="#FF4515"></stop><stop offset="0.5" stop-color="#FF3C15"></stop><stop offset="0.5452" stop-color="#F63F1E"></stop><stop offset="0.619" stop-color="#DE4636"></stop><stop offset="0.7122" stop-color="#B6515E"></stop><stop offset="0.8212" stop-color="#7F6195"></stop><stop offset="0.9419" stop-color="#3975DB"></stop><stop offset="1" stop-color="#157FFF"></stop></linearGradient></defs></svg>