<?xml version="1.0" encoding="UTF-8" standalone="no" ?>
<!DOCTYPE svg PUBLIC "-//W3C//DTD SVG 1.1//EN" "http://www.w3.org/Graphics/SVG/1.1/DTD/svg11.dtd">
<svg xmlns="http://www.w3.org/2000/svg" xmlns:xlink="http://www.w3.org/1999/xlink" version="1.1" width="1080" height="1080" viewBox="1750 -1500 1080 4580" xml:space="preserve">
<desc>Created with Fabric.js 5.2.4</desc>
<defs>
</defs>
<g transform="matrix(1 0 0 1 540 540)" id="27a1abf1-1859-43e6-b4f0-73e95a5d9823"  >
</g>
<g transform="matrix(1 0 0 1 540 540)" id="a931d7ad-2bb1-4eac-8fd8-6b2b266d4e21"  >
<rect style="stroke: none; stroke-width: 1; stroke-dasharray: none; stroke-linecap: butt; stroke-dashoffset: 0; stroke-linejoin: miter; stroke-miterlimit: 4; fill: rgb(255,255,255); fill-rule: nonzero; opacity: 1; visibility: hidden;" vector-effect="non-scaling-stroke"  x="-540" y="-540" rx="0" ry="0" width="1080" height="1080" />
</g>
<g transform="matrix(2.75 0 0 2.75 540.38 382.37)"  >
<rect style="stroke: none; stroke-width: 1; stroke-dasharray: none; stroke-linecap: butt; stroke-dashoffset: 0; stroke-linejoin: miter; stroke-miterlimit: 4; fill: rgb(110,184,187); fill-rule: nonzero; opacity: 1;" vector-effect="non-scaling-stroke"  x="-196.5" y="-729.5" rx="0" ry="0" width="393" height="1459" />
</g>
<g transform="matrix(2.75 0 0 2.75 516.4 -1235.6)"  >
<path style="stroke: none; stroke-width: 1; stroke-dasharray: none; stroke-linecap: butt; stroke-dashoffset: 0; stroke-linejoin: miter; stroke-miterlimit: 4; fill: rgb(255,255,255); fill-rule: nonzero; opacity: 1;" vector-effect="non-scaling-stroke"  transform=" translate(-187.85, -141.87)" d="M 120.29 122.942 L 120.767 122.836 L 119.84 122.685 L 120.284 122.574 C 120.73 122.575 121.308 122.741 121.622 122.653 C 121.66 122.568 121.175 122.54 121.051 122.472 C 120.941 122.403 120.852 122.334 120.784 122.266 C 121.026 122.266 121.293 122.283 121.569 122.314 C 121.939 122.365 122.302 122.39 122.618 122.385 C 123.264 122.399 123.888 122.385 124.59 122.388 L 124.356 122.183 L 125.262 122.231 C 125.358 122.247 125.472 122.222 125.566 122.241 C 126.351 122.405 126.683 122.316 127.059 122.242 C 127.136 122.222 127.229 122.208 127.336 122.199 C 128.382 122.238 129.326 122.468 130.268 122.586 C 130.446 122.616 130.616 122.654 130.767 122.699 C 131.095 122.785 131.459 122.855 131.827 122.904 C 132.195 122.952 132.555 122.976 132.874 122.974 C 133.578 122.973 134.375 123.03 135.185 123.14 C 135.426 123.177 135.667 123.201 135.893 123.211 C 136.119 123.221 136.325 123.217 136.497 123.199 L 137.045 123.316 C 137.283 123.269 137.584 123.242 137.931 123.239 C 138.277 123.236 138.662 123.256 139.061 123.298 C 139.487 123.344 139.92 123.375 140.361 123.423 C 141.274 123.515 142.162 123.571 142.998 123.59 C 144.243 123.645 145.46 123.688 146.716 123.758 C 147.501 123.791 148.267 123.81 149.008 123.813 C 149.895 123.826 150.855 123.89 151.841 124 C 151.795 124.104 151.362 124.073 151.072 124.07 C 150.136 124.053 149.178 124.008 148.214 123.974 C 147.78 123.961 147.358 123.956 146.951 123.959 C 146.269 123.955 145.551 123.928 144.808 123.877 C 143.635 123.821 142.499 123.795 141.411 123.797 C 141.326 123.801 141.248 123.808 141.179 123.819 C 141.164 123.828 141.161 123.839 141.17 123.852 C 141.179 123.864 141.2 123.877 141.23 123.89 C 141.261 123.903 141.3 123.915 141.344 123.925 C 141.387 123.935 141.435 123.943 141.481 123.948 C 141.913 124.018 142.376 124.094 142.784 124.104 C 142.799 124.105 142.816 124.107 142.833 124.11 C 142.849 124.112 142.865 124.116 142.879 124.12 C 143.791 124.268 144.54 124.243 145.25 124.268 C 146.429 124.333 147.565 124.363 148.642 124.359 C 148.805 124.359 148.98 124.367 149.163 124.384 C 150.29 124.45 151.345 124.457 152.277 124.406 C 152.66 124.393 153.017 124.363 153.429 124.363 C 153.683 124.361 153.904 124.342 154.079 124.307 C 154.253 124.273 154.378 124.223 154.446 124.162 C 154.62 124.194 154.796 124.223 154.974 124.248 C 155.08 124.262 155.181 124.266 155.258 124.259 C 155.334 124.251 155.38 124.233 155.387 124.208 C 155.418 124.137 155.177 124.102 154.967 124.072 C 155.094 124.057 155.236 124.048 155.391 124.045 C 156.264 124.029 157.201 124.048 158.18 124.102 C 158.941 124.166 159.548 124.114 160.348 124.205 C 160.444 124.22 160.523 124.197 160.612 124.192 C 160.842 124.163 161.129 124.156 161.447 124.173 C 161.766 124.189 162.106 124.228 162.44 124.287 C 162.855 124.128 163.751 124.309 164.413 124.326 C 164.617 124.407 164.383 124.393 164.373 124.415 C 164.363 124.437 164.373 124.415 164.293 124.402 C 163.632 124.517 162.727 124.542 161.703 124.473 C 161.514 124.474 161.334 124.479 161.164 124.489 C 160.907 124.503 160.618 124.502 160.308 124.485 C 159.97 124.472 159.659 124.478 159.39 124.502 C 159.236 124.502 159.106 124.514 159.011 124.538 C 158.916 124.561 158.861 124.595 158.849 124.637 C 158.952 124.669 159.067 124.699 159.188 124.724 C 159.82 124.825 160.45 124.866 160.954 124.841 C 161.832 124.797 162.877 124.84 163.811 124.825 C 164.442 124.819 165.114 124.836 165.813 124.877 C 165.813 124.877 165.795 124.917 165.793 124.921 C 165.876 124.939 165.962 124.953 166.049 124.963 C 166.049 124.963 166.049 124.963 166.057 124.944 C 166.019 124.926 165.967 124.91 165.907 124.896 L 165.699 124.862 C 165.841 124.853 165.973 124.827 166.12 124.843 C 166.43 124.873 166.727 124.885 166.992 124.88 C 167.256 124.875 167.484 124.851 167.661 124.812 C 167.975 124.761 168.366 124.738 168.808 124.744 C 169.146 124.738 169.473 124.726 169.785 124.708 C 169.785 124.708 169.805 124.663 169.953 124.64 C 169.813 124.611 169.667 124.587 169.521 124.569 C 168.889 124.526 168.254 124.486 167.633 124.457 C 167.404 124.453 167.188 124.458 166.991 124.471 C 166.444 124.487 165.829 124.465 165.183 124.408 C 165.183 124.408 165.055 124.387 164.991 124.376 C 165.173 124.278 165.798 124.376 166.051 124.31 C 166.205 124.311 166.476 124.32 166.466 124.302 C 166.445 124.279 166.443 124.257 166.459 124.239 C 166.475 124.22 166.51 124.206 166.56 124.196 C 166.611 124.186 166.676 124.181 166.751 124.181 C 166.826 124.181 166.909 124.187 166.994 124.197 C 167.706 124.254 168.376 124.27 168.964 124.244 C 169.187 124.244 169.437 124.261 169.658 124.265 C 169.794 124.27 169.917 124.267 170.022 124.257 C 170.557 124.179 171.276 124.173 172.072 124.241 C 172.457 124.265 172.816 124.268 173.132 124.25 C 173.357 124.247 173.452 124.302 173.612 124.328 L 174.291 124.383 L 173.419 124.452 C 173.605 124.61 173.753 124.662 174.058 124.672 C 174.502 124.687 174.935 124.693 175.353 124.692 C 175.663 124.691 175.918 124.657 176.337 124.717 C 176.411 124.727 176.483 124.73 176.539 124.726 C 177.03 124.672 177.621 124.66 178.272 124.69 C 178.609 124.59 179.183 124.687 179.714 124.766 C 179.885 124.69 179.575 124.656 179.39 124.609 C 179.834 124.614 180.281 124.611 180.74 124.622 C 180.878 124.618 181.035 124.625 181.2 124.643 C 181.365 124.66 181.533 124.687 181.69 124.722 C 181.767 124.744 181.86 124.761 181.949 124.769 C 182.038 124.777 182.117 124.775 182.169 124.764 C 182.407 124.731 182.788 124.761 182.985 124.706 C 183.055 124.693 183.155 124.691 183.267 124.701 C 183.379 124.71 183.496 124.731 183.597 124.758 C 183.486 124.766 183.388 124.78 183.304 124.798 C 183.003 124.856 183.114 124.954 183.496 125.096 C 184.083 125.088 184.683 125.09 185.227 125.063 C 185.53 125.039 185.902 125.047 186.3 125.085 C 186.698 125.123 187.107 125.191 187.481 125.28 C 187.616 125.314 187.77 125.337 187.913 125.346 C 188.055 125.354 188.176 125.347 188.25 125.325 C 188.296 125.3 188.31 125.268 188.292 125.233 L 187.908 125.17 C 187.908 125.17 187.923 125.137 187.926 125.129 L 188.478 125.124 C 188.77 125.123 189.074 125.133 189.35 125.13 C 189.756 125.112 190.218 125.122 190.71 125.161 C 191.163 125.201 191.609 125.231 192.042 125.251 C 192.462 125.271 192.766 125.206 193.166 125.195 C 193.468 125.187 193.8 125.196 194.15 125.22 C 194.754 125.264 195.309 125.264 195.763 125.22 C 196.293 125.454 196.551 125.492 197.043 125.429 L 197.274 125.411 L 197.337 125.461 L 197.514 125.45 C 197.844 125.44 198.175 125.43 198.52 125.427 C 198.999 125.449 199.517 125.507 200.022 125.596 C 200.118 125.612 200.249 125.665 200.333 125.707 C 200.417 125.748 200.601 125.874 200.736 125.955 C 200.589 126.015 200.426 126.072 200.309 126.141 C 200.298 126.152 200.299 126.166 200.313 126.181 C 200.327 126.196 200.353 126.212 200.389 126.228 C 200.426 126.243 200.472 126.257 200.523 126.269 C 200.574 126.281 200.63 126.291 200.685 126.297 C 200.792 126.311 200.899 126.32 200.999 126.325 C 201.493 126.332 201.966 126.327 202.414 126.308 C 202.577 126.283 202.801 126.281 203.049 126.302 C 203.298 126.323 203.557 126.366 203.786 126.425 C 204.371 126.389 205.052 126.4 205.78 126.455 C 206.551 126.422 207.481 126.49 208.201 126.416 C 208.184 126.453 208.258 126.517 208.362 126.554 C 208.526 126.609 208.711 126.661 208.911 126.707 L 210.433 126.796 C 210.49 126.841 210.561 126.888 210.645 126.934 C 210.703 126.97 210.804 127.006 210.926 127.033 C 211.048 127.061 211.182 127.078 211.3 127.08 C 211.603 127.094 211.857 127.064 212.218 127.138 C 211.662 127.209 210.912 127.2 210.102 127.112 C 209.34 127.045 208.608 127.012 207.932 127.013 C 207.709 127.012 207.416 127.016 207.346 127.057 C 207.191 127.171 206.788 127.153 206.317 127.132 C 205.947 127.109 205.608 127.111 205.33 127.139 C 205.052 127.167 204.842 127.22 204.716 127.293 C 204.685 127.363 204.761 127.424 205.085 127.465 L 206.436 127.629 C 206.635 127.608 206.824 127.583 207.002 127.554 C 207.302 127.516 207.672 127.505 208.083 127.523 C 208.495 127.541 208.937 127.588 209.375 127.658 C 209.599 127.695 209.823 127.731 209.985 127.714 C 210.127 127.694 210.259 127.67 210.378 127.643 C 210.402 127.624 210.411 127.603 210.406 127.58 C 210.492 127.59 210.578 127.604 210.662 127.621 C 211.329 127.818 211.845 127.814 212.314 127.763 C 212.441 127.748 212.538 127.724 212.666 127.705 C 212.795 127.686 212.84 127.662 212.957 127.669 C 213.89 127.733 214.158 127.518 214.944 127.527 C 214.982 127.519 215.006 127.506 215.013 127.49 C 215.02 127.475 215.01 127.457 214.984 127.438 C 214.928 127.421 214.864 127.406 214.797 127.395 C 214.73 127.384 214.662 127.378 214.6 127.375 C 214.238 127.348 213.919 127.356 213.697 127.399 C 213.539 127.417 213.372 127.431 213.197 127.441 L 212.411 127.13 C 213.173 127.159 213.893 127.158 214.556 127.129 C 214.701 127.113 214.946 127.141 215.149 127.146 L 216.647 127.176 C 216.955 127.178 217.217 127.129 217.646 127.243 C 217.646 127.243 217.93 127.261 218.005 127.246 C 218.081 127.23 218.416 127.134 218.616 127.071 C 218.848 127.089 219.17 127.137 219.315 127.121 C 219.567 127.081 219.786 127.03 219.967 126.968 L 220.871 127.056 C 220.87 127.134 220.837 127.207 220.773 127.275 C 220.702 127.34 220.705 127.418 220.78 127.503 C 220.855 127.588 221.001 127.677 221.205 127.763 L 222.098 128.22 C 222.244 128.25 222.399 128.271 222.543 128.278 C 222.687 128.286 222.812 128.281 222.902 128.263 C 223.287 128.21 223.717 128.169 224.101 128.116 C 224.597 128.197 224.47 128.327 224.83 128.442 L 225.997 128.632 C 226.175 128.809 226.357 128.977 225.815 129.037 C 225.708 129.047 225.78 129.114 225.682 129.142 C 226.103 129.274 226.566 129.314 226.992 129.396 C 227.161 129.454 227.301 129.516 227.408 129.579 C 227.524 129.673 227.761 129.769 228.067 129.846 C 228.372 129.924 228.722 129.976 229.041 129.992 C 229.575 130.042 230.123 130.116 230.658 130.212 C 230.841 130.246 231.029 130.27 231.209 130.283 C 231.39 130.297 231.558 130.3 231.704 130.291 C 232.222 130.276 232.661 130.224 232.991 130.139 C 233.318 130.066 233.758 130.031 234.273 130.037 C 235.152 130.18 235.33 130.396 235.862 130.587 L 234.942 130.608 C 234.909 130.682 234.97 130.776 234.593 130.774 C 234.216 130.772 234.407 130.843 234.53 130.915 C 234.573 130.951 234.657 130.988 234.768 131.02 C 234.878 131.052 235.009 131.076 235.137 131.09 L 235.92 131.181 C 236.198 131.216 236.466 131.231 236.696 131.225 C 236.926 131.218 237.109 131.19 237.225 131.143 C 237.357 131.099 237.54 131.069 237.762 131.056 C 238.045 131.02 238.277 130.966 238.451 130.897 L 239.556 130.998 C 239.603 130.928 239.755 130.88 239.985 130.86 C 240.216 130.841 240.512 130.851 240.823 130.89 L 241.568 130.952 C 242.395 131.019 242.577 130.997 242.819 130.801 L 241.827 130.452 C 241.971 130.36 242.11 130.28 242.25 130.199 C 242.002 130.084 241.672 129.975 241.293 129.884 C 240.939 129.785 240.575 129.69 240.203 129.598 C 239.799 129.505 239.372 129.423 238.871 129.317 C 238.783 129.283 238.656 129.223 238.493 129.164 C 238.331 129.108 238.161 129.052 237.985 128.998 C 238.018 128.924 238.048 128.857 237.984 128.771 C 238.293 128.798 238.612 128.846 238.913 128.911 C 239.213 128.975 239.486 129.053 239.706 129.139 C 239.743 129.154 239.788 129.169 239.839 129.181 C 239.89 129.193 239.945 129.204 240 129.211 C 240.543 129.264 240.802 129.374 241.067 129.508 C 241.246 129.577 241.476 129.639 241.726 129.684 C 242.206 129.762 242.676 129.862 243.135 129.949 C 243.275 129.978 243.421 130.002 243.566 130.019 C 244.046 130.076 244.528 130.154 244.989 130.251 C 245.14 130.276 245.284 130.309 245.411 130.346 C 245.537 130.384 245.641 130.426 245.715 130.469 C 245.601 130.516 245.539 130.575 245.534 130.643 C 245.514 130.687 245.851 130.778 246.01 130.844 C 246.169 130.909 245.857 130.878 245.751 130.885 C 245.316 130.898 245.236 130.924 245.496 131.07 C 245.583 131.116 245.641 131.162 245.666 131.205 C 245.69 131.248 245.682 131.288 245.641 131.321 C 245.579 131.458 245.391 131.571 245.262 131.705 C 245.462 131.793 245.797 131.888 245.834 131.997 C 245.851 132.022 245.888 132.047 245.942 132.073 C 245.996 132.098 246.066 132.122 246.145 132.144 C 246.356 132.19 246.547 132.245 246.705 132.306 C 246.862 132.366 246.982 132.429 247.053 132.491 C 247.077 132.516 247.134 132.543 247.212 132.566 C 247.291 132.59 247.386 132.607 247.478 132.616 C 247.587 132.626 247.686 132.625 247.752 132.612 C 247.819 132.599 247.848 132.576 247.835 132.547 C 247.838 132.492 247.823 132.435 247.792 132.376 C 247.81 132.335 247.828 132.295 247.756 132.227 C 248.083 132.252 248.428 132.301 248.751 132.37 C 249.074 132.439 249.363 132.524 249.588 132.617 C 249.837 132.714 250.066 132.815 250.341 132.927 C 250.284 133.053 250.284 133.053 250.871 133.276 L 253.98 133.385 L 254.617 133.533 C 255.211 133.661 255.352 133.653 255.726 133.586 L 255.977 133.523 C 256.505 133.61 257.112 133.709 257.442 133.547 C 257.549 133.652 257.619 133.688 257.595 133.704 C 257.438 133.859 257.164 133.99 256.785 134.093 C 256.688 134.117 256.62 134.154 256.507 134.175 C 256.144 134.296 256.06 134.483 256.272 134.698 C 256.377 134.793 256.53 134.891 256.725 134.987 C 256.439 135.121 256.06 135.232 255.598 135.317 C 255.207 135.383 254.884 135.471 254.64 135.579 C 254.42 135.688 254.092 135.769 253.673 135.819 C 253.461 135.841 253.306 135.883 253.224 135.941 C 253.199 136.1 253.255 136.269 253.391 136.446 C 253.416 136.5 253.489 136.558 253.603 136.616 C 253.717 136.674 253.869 136.73 254.047 136.78 C 254.047 136.78 254.133 136.818 254.174 136.841 C 254.209 137.032 254.08 137.202 253.797 137.336 C 253.75 137.375 253.655 137.402 253.522 137.416 C 253.389 137.43 253.222 137.43 253.04 137.416 C 252.656 137.393 252.296 137.39 251.925 137.378 C 251.524 137.359 251.171 137.374 250.903 137.419 C 250.635 137.464 250.461 137.539 250.401 137.635 C 250.397 137.662 250.386 137.688 250.366 137.713 C 250.355 137.726 250.349 137.739 250.348 137.754 L 251.202 138.068 L 250.236 138.193 C 250.179 138.319 250.643 138.395 250.875 138.489 L 250.731 138.541 C 250.546 138.57 250.297 138.514 250.072 138.481 L 249.848 138.444 L 249.821 138.504 C 249.682 138.585 249.173 138.494 248.975 138.553 C 248.777 138.612 248.918 138.679 249.216 138.744 C 249.422 138.791 249.644 138.83 249.864 138.855 C 250.085 138.881 250.298 138.893 250.488 138.891 C 250.601 138.885 250.695 138.87 250.764 138.849 C 251.165 138.756 251.608 138.677 252.09 138.611 C 252.459 138.552 252.922 138.527 253.445 138.537 C 253.598 138.533 253.784 138.547 253.968 138.577 C 254.152 138.607 254.323 138.651 254.452 138.701 L 254.723 138.71 C 254.723 138.71 254.871 138.762 254.85 138.77 C 254.747 138.924 254.867 139.113 255.192 139.308 L 254.909 139.325 C 254.506 139.307 254.762 139.425 254.701 139.483 C 254.414 139.472 254.042 139.423 253.906 139.496 L 253.702 139.491 L 253.782 139.504 L 253.879 139.48 L 254.258 139.589 C 254.078 139.608 253.948 139.63 253.789 139.64 C 253.701 139.649 253.631 139.664 253.584 139.685 C 253.536 139.706 253.511 139.732 253.511 139.762 C 253.512 139.808 253.464 139.847 253.374 139.875 C 253.283 139.903 253.152 139.918 252.994 139.921 C 252.804 139.922 252.696 139.972 252.585 139.99 L 253.067 140.291 C 253.067 140.291 252.827 140.252 252.958 140.305 L 252.974 140.268 L 253.267 140.344 C 253.477 140.41 253.624 140.426 253.749 140.378 C 253.873 140.331 253.845 140.394 253.904 140.376 C 253.883 140.424 253.747 140.458 253.631 140.487 C 253.497 140.509 253.346 140.526 253.18 140.536 C 253.479 140.748 253.493 140.755 253.056 140.811 C 252.619 140.867 252.77 140.951 252.404 140.963 C 252.038 140.975 252.454 141.119 252.699 141.147 C 252.881 141.165 253.066 141.194 253.242 141.231 C 253.418 141.268 253.58 141.312 253.718 141.361 L 253.645 141.524 C 253.537 141.51 253.429 141.493 253.325 141.472 C 252.971 141.382 252.648 141.298 252.333 141.35 L 252.483 141.474 L 251.383 141.402 C 251.411 141.495 251.579 141.601 251.85 141.697 C 251.809 141.75 251.784 141.806 251.775 141.864 C 251.757 141.905 251.648 141.879 251.578 141.884 C 251.326 141.89 251.119 141.918 250.975 141.964 C 250.832 142.01 250.756 142.073 250.755 142.148 C 250.727 142.211 251.114 142.342 251.356 142.337 C 251.961 142.35 252.615 142.398 253.283 142.48 C 253.69 142.491 253.748 142.325 254.417 142.438 C 254.431 142.515 254.345 142.577 254.173 142.615 C 254.001 142.653 253.752 142.665 253.464 142.649 C 253.628 142.819 254.535 142.863 254.575 143.041 C 254.349 143.029 254.108 142.999 253.875 142.955 C 253.641 142.912 253.424 142.856 253.245 142.793 C 253.207 142.777 253.158 142.763 253.104 142.751 C 253.05 142.739 252.993 142.73 252.937 142.725 C 252.881 142.72 252.828 142.719 252.784 142.721 C 252.74 142.724 252.706 142.731 252.685 142.741 C 252.81 142.805 252.949 142.88 253.106 142.949 C 253.264 143.018 253.302 143.049 253.415 143.063 C 254.263 143.201 254.666 143.45 255.399 143.613 C 255.591 143.645 255.614 143.744 255.448 143.733 C 255.289 143.722 255.146 143.723 255.034 143.737 C 254.921 143.751 254.844 143.777 254.811 143.812 C 254.688 143.853 254.535 143.886 254.356 143.909 C 255.108 144.164 256.004 144.39 256.961 144.565 C 257.143 144.599 257.332 144.62 257.501 144.625 C 258.035 144.625 258.602 144.645 259.19 144.685 C 259.398 144.696 259.591 144.695 259.758 144.682 C 260.303 144.652 260.737 144.718 261.133 144.906 L 261.788 145.204 C 261.766 145.253 261.656 145.306 261.572 145.38 L 262.084 145.539 L 265.99 145.173 L 266.775 145.528 L 267.899 145.508 C 267.985 145.518 268.072 145.532 268.155 145.55 C 268.382 145.654 268.56 145.755 268.807 145.855 C 269.054 145.955 269.495 145.967 269.802 146.085 C 270.109 146.203 270.417 146.205 270.798 146.275 C 270.833 146.366 270.796 146.448 270.689 146.516 C 270.654 146.594 270.461 146.642 270.427 146.716 C 270.431 146.791 270.359 146.855 270.218 146.901 C 270.077 146.948 269.872 146.976 269.621 146.983 C 268.917 147.143 268.068 147.256 267.1 147.32 C 267.015 147.325 266.945 147.336 266.893 147.352 C 266.841 147.368 266.81 147.39 266.8 147.415 C 266.801 147.488 266.737 147.551 266.611 147.599 C 266.485 147.647 266.302 147.68 266.073 147.695 C 266.013 147.697 265.967 147.707 265.942 147.721 C 265.855 147.73 265.792 147.748 265.758 147.772 C 265.725 147.796 265.722 147.826 265.75 147.859 C 265.779 147.892 265.837 147.927 265.92 147.96 C 266.003 147.994 266.107 148.024 266.223 148.049 C 266.391 148.09 266.562 148.128 266.737 148.165 C 266.727 148.187 266.554 148.191 266.579 148.211 C 266.647 148.275 266.663 148.335 266.625 148.386 C 266.587 148.437 266.497 148.478 266.36 148.506 L 267.294 149.024 C 267.861 149.096 268.417 149.218 268.856 149.366 C 268.857 149.391 268.832 149.411 268.783 149.426 C 268.734 149.44 268.664 149.448 268.579 149.449 C 268.351 149.459 268.136 149.48 267.89 149.492 C 267.74 149.5 267.615 149.52 267.523 149.548 C 267.43 149.577 267.372 149.615 267.352 149.659 L 267.9 149.852 C 267.724 149.899 267.594 149.921 267.478 149.95 C 267.544 150.011 267.657 150.073 267.808 150.133 C 267.96 150.193 268.146 150.249 268.352 150.296 C 268.408 150.305 268.464 150.312 268.518 150.316 C 268.572 150.32 268.623 150.321 268.668 150.319 C 269.092 150.253 269.589 150.37 270.071 150.48 C 270.554 150.591 270.815 150.657 271.172 150.743 L 271.853 150.755 C 272.025 150.795 272.179 150.843 272.302 150.894 C 272.425 150.946 272.514 150.999 272.561 151.049 C 272.525 151.131 272.201 151.086 272.009 151.095 C 271.552 151.145 270.951 151.135 270.306 151.064 C 270.146 151.038 269.982 151.059 269.827 151.061 C 269.491 151.072 269.169 151.088 268.86 151.111 C 268.658 151.132 268.468 151.158 268.293 151.19 C 268.246 151.293 268.982 151.374 268.565 151.425 C 268.709 151.448 268.762 151.481 268.836 151.469 C 269.31 151.537 269.777 151.57 270.183 151.565 C 270.962 151.551 271.847 151.598 272.764 151.704 C 273.755 151.812 274.705 151.858 275.536 151.837 C 275.853 151.836 276.207 151.858 276.571 151.902 C 277.001 151.963 277.428 152.002 277.825 152.015 C 277.956 152.015 278.102 152.026 278.252 152.045 C 278.401 152.065 278.549 152.093 278.684 152.127 C 278.672 152.153 278.544 152.172 278.572 152.185 C 278.983 152.379 279.149 152.581 279.78 152.78 C 280.212 152.85 280.708 152.931 280.99 152.838 C 281.273 152.744 281.171 152.664 280.61 152.425 C 280.731 152.422 280.878 152.433 281.024 152.457 C 281.171 152.48 281.307 152.515 281.409 152.555 L 281.895 152.734 L 282.333 152.905 C 282.294 152.99 282.264 153.057 282.233 153.128 C 282.183 153.203 282.238 153.294 282.39 153.388 C 282.482 153.44 282.562 153.491 282.629 153.543 C 282.903 153.747 282.982 153.941 282.858 154.102 C 282.621 154.332 282.289 154.545 281.869 154.736 C 281.424 154.923 281.181 155.158 280.815 155.361 C 280.628 155.453 280.402 155.536 280.137 155.609 C 279.636 155.77 279.086 155.923 278.583 156.088 C 278.079 156.253 277.511 156.371 276.952 156.507 C 276.12 156.668 275.221 156.807 274.259 156.924 C 273.663 157.026 273.052 157.125 272.502 157.243 C 271.851 157.375 271.088 157.47 270.229 157.525 C 269.471 157.591 268.793 157.689 268.21 157.817 C 268.148 157.831 268.1 157.848 268.066 157.869 C 267.961 157.999 267.666 158.091 267.227 158.13 C 267.254 158.169 267.288 158.207 267.33 158.247 C 267.39 158.293 267.403 158.337 267.366 158.372 C 267.329 158.407 267.243 158.432 267.121 158.444 C 266.77 158.476 266.478 158.531 266.258 158.606 C 266.178 158.624 266.128 158.652 266.113 158.685 C 266.097 158.719 266.118 158.758 266.171 158.798 C 266.219 158.84 266.223 158.879 266.182 158.909 C 266.14 158.939 266.056 158.96 265.941 158.968 C 265.643 159.007 265.325 159.039 264.988 159.063 C 264.27 159.116 263.436 159.116 262.534 159.061 C 262.439 159.046 262.342 159.07 262.23 159.052 C 261.593 158.991 261.001 158.982 260.526 159.025 C 259.969 159.041 259.387 159.038 258.8 159.046 C 257.952 159.041 257.169 159.072 256.474 159.141 C 255.68 159.075 255.234 159.189 254.563 159.191 C 253.945 159.203 253.358 159.231 252.809 159.276 C 251.924 159.334 251.043 159.386 250.171 159.455 C 249.353 159.488 248.6 159.55 247.924 159.642 C 247.665 159.683 247.197 159.619 247.02 159.705 C 246.844 159.792 246.488 159.782 246.2 159.811 L 245.293 159.882 C 245.137 159.899 244.965 159.909 244.781 159.914 C 243.937 159.919 243.353 160.035 242.57 160.059 L 242.49 160.046 C 241.1 160.218 239.509 160.312 237.764 160.326 C 236.745 160.379 235.63 160.377 234.549 160.415 C 234.291 160.493 233.681 160.397 233.358 160.468 C 233.034 160.539 232.506 160.492 232.089 160.504 C 231.671 160.516 231.264 160.545 230.818 160.544 C 230.431 160.544 230.104 160.576 229.867 160.636 C 229.326 160.735 228.667 160.793 227.918 160.808 C 226.928 160.833 225.993 160.892 224.986 160.879 C 225 160.951 224.938 161.013 224.807 161.057 C 224.675 161.101 224.478 161.127 224.237 161.131 C 223.16 161.159 222.184 161.23 221.093 161.252 L 220.801 161.252 L 217.539 161.293 C 216.66 161.301 215.813 161.315 214.916 161.324 C 214.58 161.269 214.572 161.363 214.34 161.345 C 214.275 161.299 214.199 161.278 214.084 161.303 L 214.059 161.359 L 210.336 161.433 C 208.878 161.487 207.344 161.503 205.748 161.481 C 205.37 161.487 205.016 161.505 204.694 161.536 C 204.395 161.548 204.083 161.553 203.76 161.551 C 203.324 161.537 202.897 161.53 202.482 161.53 C 201.392 161.551 200.247 161.54 199.052 161.524 C 197.858 161.509 196.953 161.536 195.89 161.534 C 195.17 161.532 194.453 161.523 193.708 161.501 C 193.352 161.491 192.913 161.435 192.545 161.415 C 192.176 161.395 192.056 161.395 192.008 161.427 C 191.847 161.516 191.444 161.459 191.122 161.45 C 190.493 161.435 190.404 161.405 190.234 161.174 L 191.005 161.1 C 191.194 161.077 191.431 161.072 191.695 161.088 C 191.958 161.104 192.239 161.139 192.509 161.19 C 192.615 161.212 192.726 161.229 192.836 161.241 C 192.946 161.253 193.052 161.259 193.148 161.259 C 193.926 161.246 194.693 161.22 195.44 161.198 L 195.55 161.184 L 195.556 160.978 C 195.458 160.958 195.355 160.941 195.253 160.929 L 191.502 160.795 C 190.642 160.762 189.748 160.688 188.904 160.658 C 188.059 160.628 187.604 160.61 186.949 160.578 C 186.672 160.561 186.39 160.537 186.105 160.509 C 186.121 160.489 186.131 160.468 186.133 160.446 C 186.148 160.412 186.168 160.368 186.047 160.332 C 185.915 160.282 185.738 160.238 185.552 160.211 C 185.377 160.194 185.208 160.183 185.051 160.181 C 184.29 160.164 183.421 160.055 182.63 159.878 L 182.353 159.997 C 181.165 159.93 179.958 159.865 178.716 159.802 C 178.468 159.785 178.207 159.752 177.953 159.705 C 177.681 159.661 177.431 159.568 177.145 159.518 C 176.862 159.481 176.582 159.453 176.308 159.433 C 176.382 159.403 176.48 159.378 176.598 159.361 C 176.714 159.355 176.799 159.336 176.84 159.307 C 176.881 159.277 176.876 159.24 176.825 159.199 C 176.737 159.129 176.698 159.063 176.89 159.054 C 177.068 159.038 177.196 159.004 177.257 158.954 C 177.319 158.905 177.313 158.843 177.239 158.777 C 177.206 158.737 177.183 158.699 177.17 158.662 L 177.09 158.649 C 176.826 158.51 176.3 158.46 175.922 158.347 C 175.743 158.314 175.559 158.295 175.397 158.293 C 174.979 158.269 174.571 158.258 174.139 158.227 C 173.932 158.213 173.716 158.188 173.504 158.152 C 173.2 158.102 173.168 158.097 172.991 157.917 C 173.265 157.92 173.483 157.893 173.606 157.841 C 173.73 157.788 173.752 157.714 173.67 157.629 C 173.444 157.445 173.205 157.251 172.183 157.12 C 172.516 157.114 172.837 157.101 173.144 157.082 C 173.234 157.078 173.3 157.064 173.336 157.043 C 173.371 157.022 173.374 156.994 173.343 156.964 C 173.312 156.933 173.249 156.901 173.162 156.872 C 173.076 156.843 172.97 156.818 172.859 156.801 C 172.319 156.696 171.756 156.627 171.233 156.599 C 170.793 156.587 170.395 156.594 169.88 156.594 L 169.272 156.494 C 169.282 156.472 169.193 156.442 169.216 156.43 C 169.37 156.315 169.541 156.204 169.716 156.081 C 169.436 156.015 169.193 155.935 169.016 155.85 C 168.838 155.766 168.733 155.68 168.713 155.603 C 168.697 155.58 168.701 155.559 168.724 155.541 C 168.747 155.523 168.788 155.51 168.844 155.501 C 169.004 155.486 169.128 155.458 169.205 155.418 C 169.283 155.378 169.312 155.328 169.291 155.271 L 168.818 155.063 C 167.396 154.914 165.999 154.808 164.653 154.746 L 163.438 154.699 C 163.292 154.644 163.337 154.619 163.475 154.618 C 163.613 154.616 164.001 154.632 164.272 154.64 C 164.505 154.651 164.713 154.644 164.875 154.619 C 165.036 154.595 165.146 154.554 165.193 154.5 L 164.785 154.262 C 164.805 154.218 164.834 154.154 165.055 154.159 C 165.206 154.154 165.317 154.131 165.371 154.095 C 165.424 154.059 165.417 154.011 165.35 153.96 C 165.34 153.923 165.355 153.889 165.395 153.86 C 165.722 153.857 166.048 153.859 166.345 153.847 C 166.483 153.844 166.6 153.83 166.687 153.807 C 166.775 153.784 166.83 153.753 166.851 153.715 C 166.862 153.678 166.835 153.636 166.775 153.592 C 166.714 153.548 166.62 153.504 166.501 153.463 C 166.036 153.412 165.61 153.411 165.317 153.461 C 165.213 153.5 165.046 153.521 164.837 153.522 C 164.628 153.523 164.388 153.503 164.148 153.465 C 163.874 153.422 163.6 153.403 163.376 153.412 C 163.151 153.42 162.992 153.456 162.925 153.513 C 162.644 153.491 162.394 153.474 162.147 153.45 C 161.856 153.419 161.581 153.41 161.352 153.424 C 160.985 153.433 160.59 153.428 160.175 153.407 C 158.98 153.356 157.783 153.308 156.625 153.286 C 156.319 153.28 156.054 153.297 155.751 153.283 C 155.449 153.27 155.209 153.306 154.83 153.232 C 154.758 153.221 154.686 153.214 154.618 153.211 C 154.551 153.208 154.491 153.21 154.442 153.217 C 153.777 153.275 152.998 153.283 152.149 153.241 C 150.986 153.231 149.781 153.202 148.617 153.195 C 148.275 153.201 147.953 153.216 147.652 153.241 C 147.423 153.256 147.184 153.266 146.935 153.271 C 146.744 153.276 146.561 153.262 146.593 153.343 C 146.626 153.424 146.34 153.373 146.175 153.358 C 145.608 153.319 145.029 153.266 144.444 153.199 C 143.867 153.127 143.303 153.085 142.783 153.076 C 142.408 153.071 142.021 153.091 141.539 152.981 C 141.557 152.94 141.575 152.899 141.68 152.856 C 141.287 152.739 140.838 152.638 140.371 152.562 C 139.904 152.486 139.432 152.437 138.994 152.419 L 138.39 152.197 C 138.242 152.171 138.09 152.152 137.944 152.141 C 137.799 152.13 137.662 152.128 137.543 152.134 C 137.451 152.137 137.339 152.129 137.227 152.111 C 137.116 152.093 137.012 152.066 136.935 152.035 C 136.821 151.996 136.681 151.962 136.533 151.938 C 136.385 151.914 136.236 151.901 136.104 151.9 C 135.689 151.875 135.246 151.82 134.821 151.738 C 134.71 151.69 134.641 151.641 134.622 151.596 C 134.602 151.551 134.633 151.513 134.711 151.485 C 134.837 151.437 134.908 151.376 134.919 151.305 C 134.93 151.235 134.882 151.156 134.777 151.074 C 134.723 151.024 134.705 150.976 134.724 150.934 C 134.743 150.892 134.798 150.856 134.887 150.829 C 135.218 150.704 135.129 150.634 134.588 150.426 C 134.5 150.392 134.394 150.359 134.276 150.331 C 134.159 150.303 134.033 150.28 133.906 150.263 C 133.608 150.229 133.314 150.204 133.03 150.188 C 132.87 150.162 132.706 150.183 132.522 150.173 C 131.601 150.122 131.466 150.041 131.167 149.865 L 130.95 149.738 C 130.547 149.635 130.106 149.549 129.659 149.487 C 129.212 149.426 128.77 149.389 128.365 149.38 C 128.204 149.379 128.019 149.362 127.838 149.33 C 127.25 149.233 126.654 149.165 126.09 149.133 C 125.739 149.114 125.361 149.066 125 148.995 C 124.639 148.923 124.312 148.831 124.058 148.729 C 123.829 148.638 123.53 148.556 123.202 148.494 C 122.819 148.432 122.783 148.358 122.997 148.302 C 123.212 148.245 123.571 148.172 123.889 148.113 C 124 148.093 124.069 148.06 124.088 148.018 C 124.107 147.976 124.075 147.927 123.996 147.875 C 123.946 147.788 123.937 147.705 123.97 147.628 C 123.988 147.596 123.976 147.56 123.934 147.521 C 123.893 147.483 123.823 147.443 123.73 147.404 C 123.636 147.365 123.522 147.329 123.394 147.298 C 123.265 147.266 123.127 147.24 122.986 147.221 C 122.395 147.125 121.819 147.031 121.216 146.96 C 120.963 146.927 120.71 146.886 120.464 146.838 C 119.96 146.719 119.421 146.62 118.879 146.547 C 118.621 146.515 118.369 146.458 118.177 146.389 C 117.573 146.204 117.016 146.009 116.517 145.808 C 116.396 145.746 116.239 145.685 116.054 145.63 C 115.869 145.574 115.661 145.525 115.443 145.486 C 115.267 145.457 115.124 145.394 114.989 145.352 C 114.89 145.255 114.88 145.165 114.958 145.09 C 115.036 145.016 115.201 144.96 115.437 144.927 C 115.661 144.888 115.87 144.843 116.063 144.795 C 116.296 144.756 116.573 144.732 116.884 144.725 C 117.252 144.704 117.524 144.645 117.665 144.554 C 116.658 144.39 115.7 144.154 114.817 144.209 L 114.146 144.06 C 114.172 144.001 114.196 143.949 114.217 143.9 C 114.377 143.813 114.427 143.702 114.363 143.578 C 114.31 143.518 114.315 143.463 114.377 143.419 C 114.438 143.376 114.555 143.344 114.715 143.329 C 115.663 143.169 116.758 143.061 117.647 142.879 C 117.925 142.845 118.251 142.829 118.611 142.833 C 118.96 142.822 118.945 142.74 118.544 142.639 C 118.319 142.586 118.09 142.536 117.857 142.487 C 116.831 142.479 116.413 142.722 115.242 142.654 L 114.699 142.335 C 114.553 142.33 114.41 142.328 114.273 142.329 L 112.309 142.459 C 112.146 142.465 112.018 142.487 111.942 142.523 C 111.865 142.558 111.842 142.605 111.876 142.659 C 111.889 142.724 111.862 142.784 111.796 142.837 C 111.753 142.874 111.78 142.922 111.872 142.973 C 112.078 143.086 111.813 143.102 111.646 143.131 C 111.603 143.134 111.554 143.133 111.501 143.13 C 111.448 143.127 111.392 143.12 111.337 143.111 C 111.282 143.102 111.229 143.091 111.181 143.078 C 111.132 143.065 111.089 143.05 111.055 143.034 C 110.76 142.927 110.502 142.813 110.212 142.694 C 110.418 142.58 110.176 142.394 110.497 142.291 C 110.533 142.27 110.547 142.245 110.539 142.217 C 110.531 142.189 110.501 142.159 110.45 142.128 C 110.319 142.048 110.257 141.97 110.27 141.902 C 110.282 141.835 110.369 141.779 110.521 141.741 L 110.54 141.7 C 110.138 141.563 110.244 141.441 110.087 141.296 L 109.7 141.201 C 108.739 140.973 108.737 140.977 107.909 140.985 C 107.743 140.898 107.955 140.885 108.114 140.875 L 109.445 140.777 C 110.315 140.712 111.211 140.667 112.183 140.643 C 113.155 140.618 114.239 140.536 115.244 140.477 C 115.295 140.472 115.334 140.463 115.358 140.45 C 115.381 140.438 115.389 140.421 115.38 140.403 C 115.34 140.384 115.288 140.365 115.227 140.348 C 115.166 140.331 115.099 140.317 115.029 140.306 C 114.709 140.254 114.381 140.221 114.04 140.177 L 113.405 140.101 L 113.21 140.002 C 113.082 139.941 112.995 139.867 112.826 139.824 C 112.687 139.791 112.535 139.767 112.388 139.752 C 112.24 139.738 112.102 139.735 111.987 139.743 C 111.67 139.763 111.382 139.791 111.078 139.818 C 110.775 139.844 110.608 139.872 110.344 139.885 C 109.809 139.891 109.293 139.906 108.796 139.931 C 108.378 139.99 107.991 140.06 107.638 140.14 C 107.417 140.172 107.211 140.21 106.835 140.169 C 106.657 140.131 106.503 140.082 106.401 140.03 C 106.299 139.977 106.255 139.925 106.277 139.883 C 106.298 139.85 106.355 139.823 106.443 139.806 C 106.532 139.79 106.649 139.783 106.784 139.786 C 107.162 139.78 107.511 139.76 107.825 139.725 C 108.261 139.662 108.793 139.635 109.388 139.645 C 109.59 139.654 109.725 139.621 109.902 139.61 C 110.078 139.599 110.228 139.571 110.425 139.592 C 111.037 139.644 111.33 139.564 111.696 139.512 C 111.821 139.489 111.897 139.452 111.919 139.405 C 111.94 139.358 111.905 139.303 111.817 139.245 C 111.648 139.131 111.441 139.016 111.199 138.902 C 111.075 138.846 110.916 138.792 110.734 138.746 C 110.552 138.7 110.353 138.662 110.152 138.635 C 110.031 138.565 109.967 138.496 109.965 138.435 C 109.963 138.373 110.022 138.321 110.139 138.283 C 110.436 138.196 110.698 138.107 111.363 138.156 C 111.676 138.175 111.97 138.178 112.234 138.167 C 112.819 138.151 113.495 138.185 114.196 138.268 C 114.378 138.289 114.556 138.303 114.726 138.31 C 115.94 138.361 117.095 138.386 118.254 138.404 C 118.869 138.412 119.488 138.409 120.129 138.434 C 121.632 138.488 123 138.461 124.451 138.478 C 125.211 138.487 125.891 138.451 126.456 138.371 C 126.566 138.344 126.661 138.313 126.739 138.278 C 126.364 138.185 125.953 138.112 125.545 138.064 C 125.136 138.017 124.744 137.998 124.405 138.009 C 124.219 138.035 123.979 138.039 123.71 138.022 C 123.442 138.005 123.157 137.967 122.887 137.913 L 123.673 137.881 C 124.194 137.867 124.729 137.862 125.236 137.842 C 126.041 137.806 126.788 137.748 127.622 137.725 C 128.296 137.704 128.899 137.649 129.412 137.563 C 129.782 137.5 130.206 137.455 130.673 137.43 C 131.005 137.417 131.005 137.417 131.218 137.288 C 131.049 137.205 130.831 137.193 130.626 137.192 C 129.396 137.139 128.225 137.13 127.137 137.164 C 126.588 137.167 126.101 137.202 125.7 137.268 C 125.601 137.296 125.35 137.283 125.148 137.274 C 124.515 137.26 123.91 137.264 123.341 137.286 C 122.553 137.322 121.676 137.313 120.743 137.26 C 120.566 137.196 120.77 137.201 120.78 137.179 C 121.502 137.137 122.21 137.09 122.947 137.054 C 123.148 137.042 123.364 137.036 123.59 137.036 C 124.437 137.058 125.142 136.997 125.608 136.863 C 125.631 136.811 125.937 136.817 126.073 136.784 C 126.139 136.754 126.183 136.72 126.204 136.682 C 126.007 136.586 125.784 136.585 125.613 136.585 C 125.115 136.596 124.636 136.616 124.178 136.646 C 123.752 136.674 123.281 136.682 122.777 136.668 C 122.406 136.656 122.088 136.675 121.713 136.67 C 121.509 136.659 121.298 136.64 121.085 136.615 C 121.323 136.549 121.646 136.508 122.032 136.495 C 122.324 136.455 122.69 136.443 122.737 136.339 C 122.599 136.265 122.445 136.264 122.321 136.272 C 122.064 136.271 121.815 136.276 121.577 136.286 C 121.071 136.307 120.524 136.307 119.946 136.286 C 119.641 136.279 119.353 136.281 119.084 136.293 C 118.476 136.31 117.894 136.346 117.337 136.363 C 116.196 136.38 115.156 136.441 114.06 136.474 C 113.816 136.482 113.598 136.51 113.276 136.461 C 112.955 136.413 112.94 136.407 112.902 136.376 C 112.812 136.326 112.785 136.278 112.826 136.241 C 112.89 136.206 113.014 136.187 113.177 136.186 C 114.156 136.131 115.086 136.054 115.959 135.955 C 116.343 135.935 116.679 135.895 116.957 135.835 C 117.176 135.794 117.437 135.767 117.731 135.754 C 118.158 135.725 118.603 135.703 119.065 135.689 C 119.28 135.682 119.462 135.66 119.602 135.624 C 119.742 135.589 119.836 135.541 119.878 135.483 L 119.312 135.291 C 119.224 135.282 119.135 135.275 119.048 135.268 L 114.352 135.406 L 113.887 135.41 C 113.377 135.399 113.252 135.37 112.769 135.148 C 113.872 135.096 114.74 134.944 115.285 134.707 C 115.154 134.681 115.02 134.659 114.885 134.641 C 114.003 134.585 113.17 134.57 112.416 134.597 C 111.969 134.6 111.509 134.593 111.047 134.589 C 111.182 134.48 111.699 134.512 112.037 134.488 C 112.842 134.449 113.555 134.369 114.151 134.251 C 114.357 134.205 114.614 134.175 114.911 134.164 C 115.209 134.16 115.457 134.132 115.635 134.083 C 115.813 134.033 115.915 133.964 115.932 133.88 C 115.96 133.805 116.02 133.735 116.112 133.671 C 115.949 133.58 115.691 133.494 115.386 133.427 C 115.081 133.36 114.75 133.319 114.455 133.309 C 113.825 133.272 113.172 133.211 112.512 133.128 C 112.183 133.086 111.86 133.062 111.565 133.057 C 111.305 133.053 111.009 133.023 110.723 132.971 C 110.436 132.918 110.175 132.847 109.979 132.767 C 109.715 132.668 109.468 132.568 109.221 132.468 C 108.975 132.368 108.688 132.242 108.4 132.119 C 108.146 132.1 107.899 132.088 107.662 132.082 C 107.477 132.087 107.261 132.073 107.041 132.044 C 106.82 132.014 106.603 131.969 106.415 131.915 C 106.525 131.861 106.65 131.814 106.781 131.752 C 106.601 131.669 106.47 131.585 106.397 131.505 C 106.324 131.425 106.31 131.35 106.356 131.284 C 106.383 131.225 106.187 131.125 106.12 131.047 C 106.033 130.979 106.016 130.915 106.073 130.865 C 106.129 130.814 106.256 130.779 106.436 130.764 C 106.659 130.735 106.841 130.692 106.974 130.636 C 107.018 130.622 107.04 130.602 107.039 130.579 C 107.038 130.555 107.013 130.529 106.967 130.503 C 106.92 130.476 106.855 130.45 106.775 130.427 C 106.695 130.404 106.604 130.384 106.51 130.37 C 106.223 130.329 105.937 130.303 105.67 130.292 C 105.209 130.273 104.768 130.261 104.347 130.256 C 103.882 130.249 103.363 130.203 102.845 130.123 C 102.382 130.047 101.966 129.979 101.739 129.835 C 101.513 129.69 101.15 129.695 100.871 129.59 C 101.028 129.495 101.306 129.429 101.678 129.399 C 101.922 129.388 102.125 129.36 102.275 129.316 C 102.425 129.271 102.518 129.213 102.549 129.143 L 101.702 128.849 C 101.026 128.711 100.653 128.818 99.9223 128.762 L 100.675 128.654 C 100.69 128.643 100.695 128.631 100.691 128.617 C 100.618 128.398 100.502 128.351 99.7329 128.23 L 99.3012 128.159 L 98.6179 128.076 C 98.5085 128.031 98.4328 127.984 98.3984 127.94 C 98.364 127.896 98.3721 127.856 98.422 127.825 C 98.5221 127.772 98.5525 127.704 98.5105 127.628 C 98.4442 127.578 98.4387 127.532 98.495 127.497 C 98.5513 127.463 98.6658 127.442 98.8186 127.44 C 98.9405 127.436 98.9496 127.377 99.0159 127.344 C 99.0818 127.299 99.1946 127.264 99.3467 127.242 C 99.4987 127.22 99.6864 127.212 99.897 127.217 C 100.518 127.222 101.101 127.205 101.636 127.166 L 101.54 127.151 C 102.098 127.185 102.62 127.189 103.08 127.163 C 103.54 127.131 104.132 127.151 104.621 127.132 C 105.02 127.136 105.323 127.091 105.467 127.007 C 105.606 126.926 106.113 126.945 106.501 126.96 C 106.73 126.97 106.952 126.974 107.164 126.973 C 107.449 126.955 107.805 126.972 108.172 127.022 C 108.283 127.037 108.391 127.045 108.488 127.045 C 109.422 127.066 110.355 127.091 111.277 127.102 C 111.49 127.096 111.739 127.11 111.996 127.143 C 112.104 127.158 112.21 127.164 112.298 127.161 C 113.754 127.127 115.398 127.212 116.826 127.166 C 116.999 127.156 117.191 127.153 117.396 127.16 C 117.856 127.187 118.255 127.169 118.534 127.11 C 118.684 127.079 118.876 127.062 119.099 127.06 C 119.321 127.057 119.569 127.071 119.826 127.098 C 120.254 127.135 120.65 127.139 120.971 127.11 C 121.598 127.083 122.257 127.072 122.943 127.077 C 123.153 127.081 123.338 127.071 123.483 127.046 C 123.628 127.022 123.729 126.983 123.779 126.934 C 123.611 126.851 123.426 126.841 123.251 126.848 C 122.573 126.829 121.897 126.807 121.232 126.798 C 120.636 126.772 120.065 126.764 119.526 126.774 C 119.258 126.786 118.924 126.76 118.597 126.703 C 118.196 126.63 117.783 126.594 117.441 126.602 C 117.188 126.604 116.92 126.597 116.643 126.583 C 116.465 126.566 116.283 126.536 116.115 126.497 C 116.048 126.48 115.976 126.466 115.902 126.455 C 115.828 126.445 115.755 126.438 115.687 126.435 C 115.618 126.433 115.557 126.435 115.505 126.441 C 115.454 126.447 115.414 126.457 115.389 126.47 C 115.132 126.584 114.557 126.526 114.065 126.513 C 113.328 126.321 112.779 126.435 112.09 126.327 C 112.035 126.319 111.981 126.315 111.932 126.314 C 111.882 126.313 111.838 126.314 111.801 126.319 C 110.467 126.385 108.913 126.33 107.512 126.353 C 107.358 126.356 107.179 126.345 106.995 126.32 C 105.794 126.157 104.64 126.111 103.758 126.191 C 103.65 126.198 103.528 126.198 103.397 126.191 C 102.794 126.127 102.217 126.101 101.714 126.116 C 100.927 126.111 100.17 126.115 99.3701 126.1 C 98.8187 126.079 98.3349 126.102 97.9673 126.166 C 97.9556 126.192 97.7107 126.164 97.5232 126.162 C 97.4153 126.096 97.3218 126.037 97.2105 125.979 C 97.1111 125.908 96.9622 125.835 96.7739 125.767 C 96.5856 125.698 96.3623 125.635 96.1191 125.582 C 95.7034 125.515 95.6618 125.416 95.9527 125.38 C 96.7026 125.26 97.6454 125.211 98.712 125.237 C 99.6036 125.239 100.511 125.243 101.416 125.255 C 101.943 125.266 102.499 125.289 103.012 125.293 C 103.185 125.301 103.363 125.314 103.544 125.332 C 103.766 125.356 103.981 125.37 104.178 125.371 C 104.812 125.35 105.518 125.369 106.265 125.425 C 106.539 125.437 106.801 125.441 107.049 125.437 C 107.635 125.422 108.271 125.433 108.939 125.471 C 109.355 125.492 109.757 125.503 110.143 125.504 C 110.279 125.506 110.39 125.488 110.522 125.502 C 111.677 125.642 112.495 125.541 113.535 125.595 C 114.04 125.61 114.523 125.61 114.976 125.595 C 115.861 125.596 116.771 125.611 117.702 125.641 C 118.933 125.69 120.073 125.673 121.248 125.694 C 121.48 125.698 121.704 125.697 121.919 125.691 C 122.962 125.653 124.094 125.662 125.289 125.715 C 125.56 125.723 125.804 125.714 126.005 125.687 C 126.206 125.661 126.359 125.619 126.456 125.563 C 126.497 125.525 126.471 125.475 126.382 125.424 C 126.234 125.358 126.068 125.293 125.885 125.231 L 119.233 125.023 C 118.954 125.012 118.681 125.006 118.417 125.005 C 117.64 125.003 116.84 124.987 116.019 124.957 C 115.208 124.928 114.433 124.933 113.648 124.924 C 113.416 124.921 113.179 124.915 112.936 124.904 C 111.296 124.819 109.696 124.767 108.149 124.749 C 107.498 124.746 106.794 124.707 106.131 124.694 C 105.467 124.682 104.559 124.677 103.772 124.672 L 101.334 124.673 C 100.855 124.67 100.388 124.678 99.9231 124.682 C 99.3586 124.41 99.1641 124.347 98.4109 124.228 C 98.1533 124.184 97.8912 124.158 97.6554 124.153 C 96.9077 124.174 95.9695 124.085 95.2605 124.097 C 94.8326 124.091 94.4696 124.121 94.2085 124.184 C 93.9819 124.233 93.7227 124.273 93.435 124.301 C 92.647 124.069 92.5775 123.918 93.1703 123.859 C 93.3309 123.846 93.5522 123.85 93.6681 123.821 C 93.7347 123.804 93.8256 123.794 93.9336 123.792 C 94.0417 123.79 94.1638 123.797 94.2905 123.811 C 94.6904 123.849 95.0652 123.858 95.3774 123.837 C 95.6711 123.809 96.0312 123.81 96.4229 123.84 C 96.7107 123.887 96.9637 123.821 97.2126 123.802 C 97.4615 123.783 97.6658 123.748 98.0546 123.8 C 98.1257 123.81 98.1964 123.816 98.2612 123.818 C 98.3259 123.819 98.383 123.816 98.428 123.809 C 98.8456 123.776 99.3439 123.779 99.8824 123.819 C 100.708 123.858 101.483 123.86 102.18 123.823 C 102.598 123.792 102.953 123.735 103.234 123.657 C 103.31 123.63 103.424 123.615 103.563 123.611 C 104.265 123.627 105.026 123.689 105.799 123.792 C 106.09 123.833 106.381 123.866 106.665 123.889 C 107.249 123.941 107.813 123.97 108.342 123.976 C 109.111 123.977 109.911 123.997 110.735 124.036 C 111.244 124.057 111.735 124.065 112.201 124.059 C 112.68 124.057 113.191 124.073 113.723 124.109 C 114.253 124.137 114.719 124.121 115.066 124.061 C 115.181 124.028 115.273 123.99 115.341 123.946 C 114.566 123.804 113.765 123.732 113.098 123.744 C 112.845 123.734 112.635 123.744 112.368 123.689 L 112.359 123.707 C 112.306 123.719 112.226 123.722 112.134 123.715 C 112.042 123.708 111.945 123.692 111.861 123.67 C 111.893 123.599 111.923 123.532 111.945 123.484 C 112.453 123.493 112.946 123.492 113.422 123.482 C 113.823 123.468 114.368 123.593 114.715 123.546 C 115.392 123.604 115.823 123.523 116.431 123.547 C 117.038 123.57 117.707 123.647 118.314 123.671 C 118.844 123.683 119.359 123.686 119.855 123.679 C 120.027 123.669 120.224 123.671 120.436 123.686 C 120.733 123.714 121.01 123.719 121.234 123.699 C 121.458 123.68 121.621 123.638 121.703 123.578 C 121.625 123.522 121.521 123.449 121.4 123.373 C 121.622 123.311 121.959 123.285 122.361 123.299 L 122.929 123.296 C 123.079 123.298 123.194 123.281 123.25 123.249 C 123.306 123.218 123.298 123.173 123.228 123.126 C 122.152 122.887 122.112 122.86 121.322 123.014 L 120.273 122.943 L 120.29 122.942 Z M 134.481 123.599 L 134.401 123.586 L 134.481 123.599 Z M 265.223 149.049 L 265.205 149.09 L 265.225 149.045 L 265.401 149.074 L 265.413 149.048 L 265.223 149.049 Z M 239.686 131.166 C 239.437 131.122 239.186 131.081 238.934 131.044 C 238.868 131.038 238.807 131.037 238.754 131.04 C 238.702 131.043 238.661 131.051 238.634 131.063 C 238.614 131.107 238.755 131.138 238.882 131.159 C 239.044 131.187 239.209 131.205 239.36 131.21 C 239.511 131.216 239.643 131.21 239.743 131.192 L 239.888 131.175 L 239.686 131.166 Z M 111.634 142.014 C 111.798 142.022 111.953 142.023 112.096 142.018 C 112.73 141.982 113.337 141.93 113.987 141.896 C 114.807 141.811 115.75 141.777 116.779 141.794 C 117.182 141.802 117.521 141.775 117.759 141.715 C 117.901 141.683 118.085 141.664 118.299 141.659 L 121.02 141.562 C 121.189 141.541 121.334 141.513 121.453 141.477 C 121.214 141.438 121.054 141.412 120.958 141.396 C 120.759 141.392 120.588 141.404 120.462 141.431 C 120.326 141.477 120.097 141.495 119.821 141.482 C 119.541 141.471 119.269 141.465 119.005 141.464 C 118.506 141.466 118.004 141.476 117.503 141.482 C 117.309 141.61 116.734 141.552 116.242 141.539 L 115.862 141.545 C 114.619 141.611 113.432 141.702 112.306 141.817 C 112.089 141.837 111.901 141.868 111.75 141.91 C 111.693 141.942 111.674 141.983 111.696 142.028 L 111.616 142.015 L 111.634 142.014 Z M 167.127 154.206 C 167.429 154.215 167.743 154.232 168.065 154.259 C 168.313 154.286 168.554 154.303 168.781 154.308 C 170.048 154.337 171.369 154.403 172.725 154.505 C 172.903 154.521 173.073 154.529 173.23 154.528 L 174.34 154.502 C 174.69 154.487 174.697 154.472 174.442 154.276 C 174.231 154.237 174.017 154.203 173.803 154.171 C 173.675 154.151 173.467 154.117 173.418 154.149 C 173.121 154.236 172.58 154.179 172.125 154.161 C 170.808 154.113 169.449 154.043 168.119 153.985 C 167.838 153.971 167.566 153.964 167.305 153.964 C 167.143 153.961 166.996 153.967 166.868 153.981 C 166.831 153.982 166.8 153.986 166.777 153.993 C 166.754 153.999 166.74 154.008 166.735 154.019 C 166.73 154.029 166.735 154.041 166.75 154.054 C 166.764 154.066 166.787 154.079 166.818 154.092 C 166.927 154.136 167.053 154.178 167.191 154.216 L 167.127 154.206 Z M 176.778 125.645 L 178.076 125.621 C 178.231 125.619 178.363 125.593 178.53 125.604 C 179.418 125.64 180.241 125.63 180.963 125.575 C 181.209 125.552 181.497 125.548 181.81 125.561 C 182.77 125.602 183.676 125.604 184.503 125.566 C 185.037 125.559 185.537 125.534 185.995 125.491 C 186.031 125.481 186.053 125.468 186.06 125.452 C 186.067 125.436 186.059 125.418 186.037 125.398 C 186.031 125.386 186.016 125.373 185.991 125.36 C 185.967 125.347 185.934 125.334 185.895 125.323 C 185.856 125.311 185.812 125.301 185.766 125.293 C 185.72 125.285 185.673 125.279 185.629 125.276 C 185.05 125.219 184.5 125.199 184.025 125.218 C 183.584 125.241 183.109 125.247 182.608 125.238 C 182.129 125.235 181.803 125.309 181.211 125.253 C 180.96 125.234 180.739 125.24 180.585 125.27 C 180.275 125.32 179.842 125.323 179.363 125.278 C 179.077 125.255 178.803 125.246 178.552 125.249 C 177.944 125.266 177.363 125.298 176.8 125.33 C 176.622 125.337 176.432 125.338 176.232 125.333 L 173.41 125.271 C 172.732 125.252 172.056 125.229 171.391 125.22 C 170.847 125.201 170.34 125.207 169.889 125.238 C 169.409 125.271 168.885 125.285 168.327 125.278 C 167.46 125.296 166.599 125.303 165.656 125.301 C 165.055 125.302 164.439 125.298 163.811 125.283 C 163.493 125.264 163.223 125.279 163.053 125.326 C 162.95 125.365 162.706 125.334 162.505 125.325 C 161.428 125.238 160.418 125.217 159.545 125.264 C 159.434 125.272 159.312 125.275 159.181 125.272 C 158.341 125.271 157.47 125.26 156.663 125.26 C 156.451 125.264 156.251 125.274 156.066 125.29 C 156.086 125.317 156.143 125.346 156.224 125.371 C 156.305 125.396 156.405 125.415 156.503 125.425 C 157.266 125.5 158.003 125.539 158.682 125.541 C 159.813 125.532 160.998 125.553 162.224 125.605 C 163.175 125.658 164.042 125.647 164.761 125.573 C 165.323 125.518 166.054 125.539 166.829 125.631 C 167.16 125.676 167.482 125.693 167.75 125.682 C 168.008 125.667 168.304 125.671 168.621 125.693 C 169.288 125.734 169.931 125.753 170.535 125.75 C 171.125 125.735 171.676 125.693 172.282 125.68 C 172.889 125.668 173.812 125.675 174.56 125.653 C 175.308 125.632 176.047 125.629 176.778 125.645 Z M 123.002 123.475 C 123.071 123.59 123.313 123.661 123.574 123.692 C 124.473 123.828 125.363 123.886 126.092 123.856 C 126.486 123.814 127.012 123.83 127.565 123.901 C 128.21 123.974 128.812 123.986 129.266 123.935 C 129.377 123.926 129.462 123.907 129.514 123.88 C 129.524 123.858 129.542 123.817 129.546 123.809 C 129.498 123.791 129.439 123.773 129.375 123.759 C 129.31 123.744 129.241 123.732 129.172 123.725 L 126.193 123.593 L 125.674 123.564 C 124.726 123.489 123.822 123.459 123.002 123.475 Z M 128.862 125.29 C 129.327 125.478 129.328 125.474 129.566 125.517 C 130.716 125.695 131.864 125.791 132.875 125.793 C 133.099 125.793 133.29 125.775 133.431 125.741 C 133.503 125.736 133.549 125.721 133.559 125.7 C 133.568 125.678 133.541 125.652 133.482 125.626 L 133.113 125.494 C 132.441 125.437 131.779 125.391 131.131 125.358 C 130.377 125.318 129.708 125.317 128.926 125.301 L 128.862 125.29 Z M 167.072 153.377 C 167.505 153.634 167.507 153.631 168.232 153.697 C 168.737 153.744 169.228 153.772 169.688 153.779 C 170.251 153.787 170.828 153.802 171.389 153.814 C 171.526 153.822 171.642 153.815 171.715 153.795 C 171.788 153.774 171.812 153.741 171.782 153.703 C 171.709 153.661 171.594 153.62 171.456 153.588 C 171.318 153.555 171.165 153.532 171.022 153.523 L 170.716 153.517 C 170.344 153.504 169.958 153.485 169.599 153.482 C 169.366 153.493 169.096 153.485 168.81 153.458 C 168.524 153.431 168.23 153.387 167.951 153.329 L 167.072 153.377 Z M 131.175 123.812 C 131.291 123.857 131.421 123.9 131.564 123.939 C 132.116 124.05 132.7 124.112 133.201 124.115 C 133.439 124.122 133.656 124.097 133.897 124.133 C 134.33 124.18 134.75 124.205 135.134 124.207 C 135.134 124.207 135.241 124.197 135.277 124.194 L 135.35 124.031 C 135.169 123.993 134.979 123.962 134.791 123.94 C 134.158 123.896 133.536 123.867 132.916 123.833 C 132.296 123.8 132.08 123.785 131.674 123.77 C 131.494 123.778 131.326 123.792 131.175 123.812 Z M 117.474 144.101 L 118.302 144.435 C 118.57 144.464 118.82 144.469 119.015 144.45 C 119.21 144.431 119.338 144.388 119.38 144.328 C 119.448 144.3 119.455 144.259 119.399 144.212 C 119.343 144.166 119.229 144.119 119.08 144.08 C 118.937 144.034 118.773 143.993 118.599 143.959 C 118.425 143.925 118.245 143.9 118.07 143.884 L 117.474 144.101 Z M 124.368 142.438 C 123.826 142.381 123.308 142.358 122.853 142.37 C 122.567 142.403 122.179 142.393 121.768 142.341 C 121.022 142.237 120.303 142.208 119.762 142.26 C 119.762 142.26 119.742 142.305 119.65 142.318 C 119.559 142.331 119.922 142.362 120.002 142.375 C 120.588 142.407 121.178 142.431 121.688 142.443 C 122.004 142.442 122.339 142.453 122.686 142.474 C 123.164 142.507 123.617 142.518 124.028 142.506 C 124.028 142.506 124.187 142.496 124.366 142.442 L 124.368 142.438 Z M 182.2 125.04 C 181.941 124.977 181.66 124.926 181.379 124.89 C 181.098 124.855 180.823 124.836 180.575 124.835 C 180.386 124.831 180.232 124.848 180.139 124.882 C 180.046 124.916 180.019 124.965 180.062 125.022 C 180.254 125.053 180.51 125.095 180.654 125.118 C 181.153 125.116 181.578 125.086 182.2 125.04 Z M 230.617 130.341 C 230.41 130.29 230.181 130.252 229.958 130.229 C 229.734 130.207 229.524 130.202 229.353 130.214 C 229.264 130.22 229.324 130.277 229.309 130.311 C 229.3 130.318 229.3 130.328 229.31 130.338 C 229.32 130.348 229.339 130.359 229.366 130.369 C 229.393 130.379 229.427 130.388 229.463 130.395 C 229.5 130.403 229.538 130.407 229.574 130.41 C 229.799 130.431 230.011 130.438 230.192 130.429 C 230.373 130.419 230.517 130.394 230.611 130.356 L 230.617 130.341 Z M 233.861 131.065 C 233.829 131.035 233.761 131.004 233.669 130.977 C 233.577 130.95 233.467 130.93 233.36 130.919 C 233.171 130.918 233 130.926 232.852 130.944 C 232.691 130.958 232.807 131.044 233.024 131.095 C 233.116 131.116 233.214 131.132 233.311 131.142 C 233.408 131.153 233.5 131.157 233.581 131.155 C 233.662 131.152 233.729 131.144 233.777 131.129 C 233.825 131.115 233.853 131.096 233.858 131.072 L 233.861 131.065 Z M 139.597 124.13 C 139.113 124.023 138.74 124.05 138.33 124.007 C 137.921 123.964 137.82 123.96 137.874 124.029 C 137.929 124.097 138.21 124.083 138.386 124.112 C 138.624 124.15 138.863 124.172 139.077 124.175 C 139.29 124.178 139.47 124.163 139.597 124.13 Z M 240.452 142.196 C 240.196 142.172 239.945 142.155 239.703 142.145 C 239.671 142.155 239.651 142.168 239.644 142.184 C 239.637 142.199 239.643 142.216 239.663 142.234 C 239.663 142.234 239.827 142.289 239.923 142.305 C 240.276 142.358 240.293 142.282 240.452 142.196 Z M 276.686 152.144 C 276.859 152.216 276.94 152.265 277.079 152.299 C 277.143 152.311 277.209 152.32 277.272 152.325 C 277.335 152.33 277.394 152.33 277.444 152.327 C 277.505 152.306 277.519 152.275 277.484 152.238 C 277.484 152.238 277.307 152.173 277.24 152.17 C 277.048 152.155 276.862 152.146 276.686 152.144 Z M 131.358 123.52 C 130.99 123.46 130.639 123.402 130.384 123.472 C 130.968 123.548 130.968 123.548 131.358 123.52 Z M 137.315 124.204 C 136.943 124.076 136.726 124.064 136.547 124.079 C 136.509 124.083 136.484 124.091 136.476 124.103 C 136.467 124.114 136.476 124.128 136.5 124.143 C 136.525 124.158 136.564 124.172 136.611 124.184 C 136.658 124.196 136.712 124.205 136.763 124.21 C 136.957 124.213 137.141 124.211 137.315 124.204 Z M 156.428 124.258 C 156.436 124.24 156.446 124.218 156.35 124.202 C 156.325 124.194 156.296 124.187 156.265 124.182 C 156.234 124.177 156.203 124.174 156.175 124.173 C 156.175 124.173 156.165 124.195 156.158 124.21 L 156.428 124.258 Z M 169.701 155.047 L 169.487 155.064 L 169.583 155.08 L 169.836 155.089 L 169.701 155.047 Z M 244.908 130.775 C 244.828 130.762 244.748 130.749 244.736 130.775 C 244.719 130.779 244.709 130.785 244.706 130.792 C 244.703 130.799 244.707 130.808 244.718 130.816 C 244.718 130.816 244.83 130.834 244.878 130.842 L 244.908 130.775 Z M 232.456 130.983 C 232.404 130.982 232.356 130.983 232.317 130.988 L 232.307 131.01 L 232.467 131.037 L 232.456 130.983 Z M 123.945 136.286 C 123.884 136.272 123.818 136.261 123.753 136.254 L 123.673 136.241 C 123.673 136.241 123.759 136.279 123.807 136.287 C 123.855 136.295 123.894 136.285 123.945 136.286 Z" stroke-linecap="round" />
</g>
<g transform="matrix(2.75 0 0 2.75 540.38 1283.94)"  >
<path style="stroke: none; stroke-width: 1; stroke-dasharray: none; stroke-linecap: butt; stroke-dashoffset: 0; stroke-linejoin: miter; stroke-miterlimit: 4; fill: rgb(227,250,251); fill-rule: nonzero; opacity: 1;" vector-effect="non-scaling-stroke"  transform=" translate(-196.5, -1058.35)" d="M 0 616.249 L 275.135 543.556 C 295.263 538.238 316.709 543.734 331.798 558.077 L 393 616.249 L 393 1468.18 L 104.117 1571.63 C 87.5186 1577.57 69.1456 1575.92 53.8785 1567.1 L 0 1535.98 L 0 616.249 Z" stroke-linecap="round" />
</g>
<g transform="matrix(2.75 0 0 2.75 536.66 189.41)"  >
<path style="stroke: none; stroke-width: 1; stroke-dasharray: none; stroke-linecap: butt; stroke-dashoffset: 0; stroke-linejoin: miter; stroke-miterlimit: 4; fill: rgb(255,255,255); fill-rule: nonzero; opacity: 1;" vector-effect="non-scaling-stroke"  transform=" translate(-195.28, -660.42)" d="M 199.692 670.422 L 196.182 670.422 L 196.182 654.942 L 192.912 658.362 L 190.872 656.232 L 196.632 650.412 L 199.692 650.412 L 199.692 670.422 Z" stroke-linecap="round" />
</g>
<!-- <g transform="matrix(2.75 0 0 2.75 539.32 1039.94)"  >
<path style="stroke: none; stroke-width: 1; stroke-dasharray: none; stroke-linecap: butt; stroke-dashoffset: 0; stroke-linejoin: miter; stroke-miterlimit: 4; fill: rgb(255,255,255); fill-rule: nonzero; opacity: 1;" vector-effect="non-scaling-stroke"  transform=" translate(-196.25, -969.91)" d="M 203.63 980.07 L 189.14 980.07 L 189.14 977.28 C 193.36 974.08 196.22 971.73 197.72 970.23 C 199.22 968.73 199.97 967.29 199.97 965.91 C 199.97 964.93 199.61 964.18 198.89 963.66 C 198.17 963.14 197.31 962.88 196.31 962.88 C 194.13 962.88 192.33 963.67 190.91 965.25 L 188.87 962.97 C 189.73 961.93 190.81 961.14 192.11 960.6 C 193.43 960.04 194.82 959.76 196.28 959.76 C 198.32 959.76 200.03 960.31 201.41 961.41 C 202.81 962.49 203.51 963.99 203.51 965.91 C 203.51 967.65 202.79 969.37 201.35 971.07 C 199.93 972.77 197.74 974.74 194.78 976.98 L 203.63 976.98 L 203.63 980.07 Z" stroke-linecap="round" />
</g> -->
<!-- <g transform="matrix(2.75 0 0 2.75 546.99 821.93)"  >
<line style="stroke: rgb(110,184,187); stroke-width: 3; stroke-dasharray: 6 6; stroke-linecap: butt; stroke-dashoffset: 0; stroke-linejoin: miter; stroke-miterlimit: 4; fill: none; fill-rule: nonzero; opacity: 1;" vector-effect="non-scaling-stroke"  x1="0" y1="-31.5" x2="0" y2="31.5" />
</g> -->
<!-- <g transform="matrix(2.75 0 0 2.75 546.99 1673.85)"  >
<line style="stroke: rgb(110,184,187); stroke-width: 3; stroke-dasharray: 6 6; stroke-linecap: butt; stroke-dashoffset: 0; stroke-linejoin: miter; stroke-miterlimit: 4; fill: none; fill-rule: nonzero; opacity: 1;" vector-effect="non-scaling-stroke"  x1="0" y1="-31.5" x2="0" y2="31.5" />
</g> -->
</svg>